<svg width="177.00000000000003" height="118" xmlns="http://www.w3.org/2000/svg">
 <defs>
  <style type="text/css">
   <![CDATA[
    .fil28 {fill:#0431AF}
    .fil0 {fill:#0632AD}
    .fil33 {fill:#0A32A9}
    .fil27 {fill:#0A9444}
    .fil24 {fill:#0E9443}
    .fil1 {fill:#0E9543}
    .fil31 {fill:#1437A2}
    .fil29 {fill:#1C399C}
    .fil34 {fill:#399937}
    .fil25 {fill:#6F6862}
    .fil32 {fill:#887151}
    .fil23 {fill:#B38D33}
    .fil16 {fill:#D1015B}
    .fil2 {fill:#D2005C}
    .fil18 {fill:#D2035A}
    .fil26 {fill:#D2045C}
    .fil30 {fill:#DC492E}
    .fil19 {fill:#DF8400}
    .fil8 {fill:#DF8701}
    .fil5 {fill:#E08700}
    .fil15 {fill:#E18C01}
    .fil11 {fill:#E6B012}
    .fil7 {fill:#EA9F04}
    .fil22 {fill:#ECB40B}
    .fil6 {fill:#EDA505}
    .fil20 {fill:#EEA906}
    .fil3 {fill:#F0AD06}
    .fil21 {fill:#F2B107}
    .fil13 {fill:#F3B508}
    .fil4 {fill:#F3BC0A}
    .fil14 {fill:#F5B908}
    .fil10 {fill:#F7BF09}
    .fil12 {fill:#F9C50A}
    .fil17 {fill:#FAC70C}
    .fil9 {fill:#FBC90B}
   ]]>
  </style>
 </defs>
 <g>
  <title>background</title>
  <rect fill="none" id="canvas_background" height="120" width="179" y="-1" x="-1"/>
 </g>
 <g>
  <title>Layer 1</title>
  <g stroke="null" id="Layer_x0020_1">
   <metadata stroke="null" transform="translate(0.31496062874794006,0.4724409580230713) translate(-0.15748031437397003,-0.15748031437397003) translate(-0.7874016165733337,-0.4724409580230713) translate(1.2598425149917603,0.4724409580230713) translate(-0.31496062874794006,-0.15748031437397003) translate(0,-0.4724409580230713) translate(0.15748031437397003,0.4724409580230713) translate(-0.6299212574958801,0.15748031437397003) translate(-0.15748031437397003,-0.31496062874794006) translate(0.6299212574958801,0.15748031437397003) translate(-0.9448819160461426,0) translate(1,1) translate(-0.31496062874794006,-0.15748031437397003) translate(-0.42552971839904785,-0.8510594367980957) translate(0,-0.42552971839904785) translate(-16,-89) " id="CorelCorpID_0Corel-Layer"/>
   <g stroke="null" id="_384843184">
    <path stroke="null" d="m0.435188,29.775411l78.5928,0.0056l0.4844,-0.2256c1.1896,-2.7017 0.2878,-2.5725 0.2367,-2.7848c-0.1313,-0.5458 -1.3463,0.1985 0.1836,-1.259c0.5831,-0.5555 0.6904,-0.3241 1.0641,-0.2148c0.8053,0.4108 0.6585,0.4225 1.8759,0.341c0.5452,-0.0365 1.5639,-0.2718 2.3217,-0.3415c-1.4988,1.1206 -1.3007,0.2162 -1.1509,0.5854l4.1493,0.1438l0.0637,-1.0413l-2.9676,0.264l1.5836,-0.569l-0.4214,-2.0082c-0.0701,-1.031 -0.1635,-0.6847 -0.2721,-0.8853c-1.6036,-2.9623 0.386,1.4824 -0.518,-0.8343c-0.1251,-0.3207 -0.4508,-1.8471 -0.5529,-2.2955c-1.1984,-0.2991 -0.4963,-3.0067 -0.3895,-4.0188c0.079,0.0539 0.1722,0.1412 0.2199,0.184l0.4141,0.3692c0.0555,0.0539 0.1308,0.1297 0.1857,0.186l1.7345,2.2953c0.3921,-0.9928 0.4845,-0.513 0.1754,-1.2878c-0.3378,-0.8465 0.071,0.0081 -0.5123,-0.5791l-0.4978,-0.3539c-0.0755,-0.0392 -0.1962,-0.073 -0.2327,-0.1049c-0.0361,-0.0316 -0.1675,-0.1099 -0.2053,-0.1478c-1.8083,-1.8116 0.0031,0.5363 -0.3663,-0.7773c1.9462,-0.9696 1.9505,0.2554 2.068,0.3663c0.0492,-0.0647 0.1003,-0.1683 0.1275,-0.2077l0.8003,-0.9911c0.5077,0.6134 0.5905,-0.88 0.4073,1.2774c0.6657,-0.1873 0.5243,-0.1111 0.9276,-0.5004l0.7818,-0.5142c0.098,0.0422 0.2234,0.1081 0.2871,0.1417l0.8546,0.4732c0.3192,0.1668 0.1573,0.0256 0.6796,0.3076c0.2861,1.2393 0.8558,2.3745 -0.1121,3.1818c-0.5947,1.4644 -1.1571,1.6062 -2.5635,0.8916c0.1778,1.0987 -0.036,-0.1047 0.3016,0.7614c0.1824,0.4679 0.0082,-0.5233 0.2779,0.7491c0.4122,0.6415 -0.8155,0.4883 0.3975,0.4883c0.3696,-1.6958 -0.3495,-0.6719 0.8488,-1.1081l0.4987,0.4152c-0.3337,1.1046 0.441,1.0273 -1.546,1.117c0.0509,1.4703 0.3044,1.6838 -0.2021,2.7932l-0.3209,0.7379c1.077,0.2586 2.0021,0.4365 3.0335,0.6473c0.1216,0.0249 1.4548,0.2565 1.5032,0.2568c2.0099,0.0117 0.4182,0.2649 1.7047,-0.3404c0.8645,-0.419 0.6575,0.0535 1.717,0.734c-0.9609,1.2172 -0.678,-0.039 -0.7538,1.7415c-0.0464,1.0904 0.0902,1.183 0.4609,1.8991l79.011,0.0419l0,-29.4715l-176.389,0l0,29.4657l0.0002,0z" class="fil0" id="_383977368"/>
    <path stroke="null" d="m0.435188,118.137411l176.389,0l0,-29.4581l-65.7712,-0.0466l-2.6503,1.5557c3.129,0.2165 5.6651,0.1133 6.4397,3.0237l-0.0399,0.1647l0.6035,1.928c0.1434,1.3623 -0.0528,1.5255 -1.7121,1.6817c-1.0778,0.1015 -2.4423,-0.0683 -3.579,-0.0606c1.0856,1.6312 4.4833,2.6339 4.1042,4.8202c-2.2354,0.1009 -4.59,-4.527 -5.8338,-4.9346c-2.0958,0.0226 -3.9875,0.3424 -5.3088,1.5703c0.7849,2.0573 3.7003,3.9842 2.2762,5.4161c-1.2182,-0.1174 -2.0907,-2.8695 -2.4535,-3.7383c-1.2274,-2.9392 -1.3,-0.0468 -2.2362,-2.5581l-1.3714,-2.1025l-0.9226,0.3589c0.4603,2.2257 0.3978,1.9875 -0.8363,3.7699l-2.0467,2.2569c-0.7793,0.595 0.8374,-0.0153 -0.8572,0.5152l-1.5589,0.1439l-0.5595,0.8401l-0.5187,-1.1888c-1.3101,-3.0203 -0.8312,-1.4128 -0.9575,-4.5532l-0.9915,-0.1056c-0.6458,0.2861 -0.2752,-0.0927 -1.1567,0.5928c0.0053,2.742 0.9153,6.6506 -0.2562,7.3442c-0.9786,-1.0885 -0.2602,-5.3239 -0.2575,-7.6337l-2.3201,0.0697c-0.039,2.4767 -0.5514,3.4721 -1.3858,5.5631l-0.5826,-0.7601l-1.9006,-0.3461c-0.9915,-0.3302 -0.3405,-0.0936 -0.9486,-0.7954c-0.1166,-0.1345 -0.5287,-0.7477 -0.5448,-0.7687c-1.0292,-0.6025 -0.7018,-0.4736 -1.3412,-1.5741c-1.1804,-1.6606 -1.1915,-0.9799 -0.6689,-3.2376l-0.9248,-0.4168l-1.306,2.1136c-0.6327,1.143 -0.3295,0.4474 -1.2451,1.104c-1.5265,1.0946 -0.9348,2.7891 -3.1738,5.2111l-0.865,-0.4243c0.1259,-0.9012 1.1267,-2.6672 1.7511,-3.4963c0.8425,-1.1188 0.5768,-0.4159 1.067,-1.5999c-0.4165,-0.3291 0.1416,0.0183 -0.6897,-0.5071c-0.2241,-0.1415 -0.4681,-0.2792 -0.7092,-0.3894c-0.4923,-0.2251 -1.066,-0.3959 -1.643,-0.5098c-2.5902,-0.5112 -3.2684,0.0627 -4.4474,1.849l-0.8889,1.2306c-0.7142,0.824 -1.2575,1.4758 -2.3266,1.7882l-0.6365,-0.7049c0.5791,-0.7253 1.2532,-1.2886 1.9941,-2.0579c1.4693,-1.5257 1.6078,-0.7846 2.3172,-2.2172c-2.0213,0.1151 -3.3231,0.3969 -5.1952,-0.2836l-0.0404,-1.303l0.3794,-1.5988c0.4427,-1.7268 0.4841,-2.2749 2.3492,-2.9254c1.3902,-0.4849 2.7218,-0.498 4.1901,-0.5055c-0.7732,-0.7322 -1.4757,-1.2739 -2.6443,-1.5913l-65.5565,0.0048l0,29.4769l-0.0002,0z" class="fil1" id="_383974440"/>
    <path stroke="null" d="m96.745588,41.962411l-6.8466,0.0978l-0.7109,0.0944c1.2324,0.8427 1.0749,0.9428 0.6502,2.8078c1.7473,-0.4098 3.8387,-1.0913 5.1604,-1.2959c3.2258,-0.4993 6.9343,1.1653 5.5929,4.8949l-0.608,1.1704c-0.4513,0.6684 0.0572,0.1826 -0.6677,0.7953c-1.3567,1.1469 -0.5235,0.3175 -2.0463,0.7769l0.1347,0.1602l-0.6379,3.4315l1.9723,-0.0254l1.8483,-3.0103c0.6933,-1.4758 0.6761,-2.4416 1.4805,-3.8903c0.7864,-1.4164 1.4567,-2.3026 2.0433,-3.6146c0.7472,-1.4265 1.5794,-2.9218 2.3752,-4.3025c0.7956,-1.3803 1.5431,-3.2242 2.7801,-4.0609l0.7759,-2.635c0.3943,-1.2052 0.1279,-1.3111 2.5341,-2.9471c-0.0873,3.3739 -1.6091,2.9961 -1.562,4.4309c0.0639,1.9453 5.6049,6.5242 5.8238,6.7592c1.1316,1.2147 1.449,2.93 2.4838,4.1774c2.1006,-1.6452 1.3423,-2.6717 4.8795,-3.7586c-0.2283,0.6402 -0.432,1.1455 -0.8672,1.7975l-1.4558,1.4639c-0.0477,0.0411 -0.149,0.1169 -0.214,0.1853c1.8541,3.534 1.5304,1.7794 2.7789,7.9793c0.4244,2.1079 1.765,7.2965 1.8474,8.954l-7.2057,6.1136c-1.7245,1.2611 -6.3816,5.2299 -7.9924,5.587l-1.7219,-11.4979c-0.9162,0.7576 -0.3311,0.6372 -1.5396,0.9256l-0.1488,1.2921c-0.3589,2.1006 -0.9875,3.8494 -1.812,5.6442c-0.3905,0.8502 -0.7881,1.7112 -1.1937,2.687c-0.4517,1.0869 -0.5764,1.8456 -1.3406,2.6967l-0.5469,3.0431l-0.0211,0.2811c1.6431,0.8439 2.9201,1.0561 4.646,1.4896c2.5128,0.6312 2.6582,0.5579 3.1679,3.097l1.0476,1.9879c0.5233,0.7052 0.424,0.2966 0.2574,1.256c-0.1648,0.9493 -0.3426,0.7064 -0.8335,1.6312l65.7712,0.0466l0,-58.8982l-79.011,-0.0419l-0.0936,1.4017c1.1132,1.0179 1.318,1.574 1.6086,3.1563l-1.9115,0.9371l-0.0165,5.6448c-0.0712,1.7731 0.101,0.4928 -0.6548,1.0833z" class="fil2" id="_385965320"/>
    <path stroke="null" d="m0.435188,88.660411l65.5565,-0.0048c-0.4156,-0.7034 -1.3659,-1.652 -0.655,-2.747l1.28,-2.8158c0.5845,-2.1056 1.3478,-2.023 3.4723,-2.5366c1.7777,-0.4297 3.0426,-0.6605 4.3859,-1.5772l-0.507,-3.2032c-0.7221,-0.6913 -0.1752,0.0849 -0.7672,-1.1358c-1.0578,-2.1813 -3.3296,-7.8295 -3.64,-10.025c-0.2297,-1.4734 -0.202,-0.9528 -1.7128,-2.005l-1.6042,11.527c-1.5317,-0.282 -6.3581,-4.4516 -8.0223,-5.6674c-1.4199,-1.0374 -2.2295,-2.0117 -3.6187,-3.0937l-3.5902,-2.9775c0.1367,-1.8483 1.3627,-6.345 1.7776,-8.6111c0.3155,-1.7226 0.9834,-4.8513 1.6778,-6.4856l1.0031,-1.6094c0.0397,-0.0528 0.1254,-0.1472 0.1793,-0.2272c-0.0691,-0.0696 -0.1873,-0.2577 -0.2235,-0.1911l-0.4318,-0.3728c-0.0542,-0.0491 -0.1463,-0.1226 -0.2039,-0.1773c-0.8429,-0.7995 -1.1829,-1.4924 -1.6822,-2.6839c3.153,0.8025 2.8921,1.9405 4.829,3.7455c1.6743,-1.7851 -0.5962,-1.1875 4.2391,-5.6127c1.5034,-1.3759 3.7031,-3.782 4.2133,-5.7437c-0.7951,-1.2885 -1.6615,-1.5697 -1.6823,-4.0196c2.3305,1.3611 2.1431,1.5899 2.8207,3.765c0.2275,0.7305 0.3606,1.037 0.5223,1.7248c1.3642,1.0492 6.6808,10.8924 6.9418,11.7999c1.1982,1.6742 0.8368,1.7022 1.3211,3.5156c0.9601,1.0967 1.3361,3.1062 2.7907,3.6958l1.084,-0.0415l0.2348,-0.465l-0.448,-3.0469c-1.2683,-0.696 -0.6597,0.2724 -2.0405,-0.7855c-0.0799,-0.0612 -0.3005,-0.2636 -0.3715,-0.3379c-2.5856,-2.7064 -1.0262,-6.7691 3.4937,-6.6717c1.801,0.0388 3.6445,1.0448 4.845,1.0948l1.3164,0.2524c0.6087,-0.8759 -1.0171,-1.3297 0.9208,-2.7674l-0.6303,-0.0728l-7.4713,-0.0626l0.0036,-6.6108c-0.5838,-0.4733 -0.7998,-0.6174 -1.2078,-1.0145l-0.9249,-0.2322l0.5238,-1.3857l0.4586,-1.5784l0.137,-1.4041l-78.5928,-0.0056l0,58.8852z" class="fil2" id="_383976720"/>
    <path stroke="null" d="m80.075588,91.127411c2.0012,1.6027 1.9801,1.2097 1.6092,4.2302c-0.2869,2.3373 1.1177,2.6112 -2.3088,3.1319c-0.0653,-2.5579 0.6244,-1.6706 1.0039,-3.4547c0.2511,-1.1807 -0.2242,-2.6899 -0.3043,-3.9074zm-0.6818,-2.5346l-1.0378,2.381c-0.4845,-0.1518 -1.297,-0.5336 -1.4277,-0.531c-0.9893,0.0199 -0.8023,0.7095 -0.9129,1.3145l0.7357,1.1935c0.8587,0.9997 0.385,-0.5895 0.7418,1.347l-2.865,-0.239l-0.9999,0.1073c0.1802,-0.4363 0.2807,-0.6149 0.3821,-0.8369c0.1441,-0.3153 0.2214,-0.5339 0.341,-0.7763l2.785,-3.8934c0.5902,-1.3295 1.0519,-1.4347 1.8284,-2.313l1.7981,0.1477l-1.3688,2.0986zm1.0296,-34.1889l-0.2348,0.465c1.1083,0.6625 6.8194,0.2865 8.2249,0.2865c-0.0214,0.1178 -0.0792,0.2521 -0.1092,0.3421l-0.2107,0.6256c-0.2755,0.8154 -0.0111,-0.0853 -0.2514,0.7257c-0.1426,0.4814 -0.062,0.6615 -0.269,1.2172c-1.6531,-1.2728 0.2875,-0.7286 -2.0362,-1.0593c-0.8319,-0.1184 -2.4038,0.6753 -1.4419,1.5397c0.8361,0.7513 0.227,-0.0646 1.0841,-1.215c0.0931,0.7886 0.5019,1.1756 0.153,1.8227c-0.8955,1.6609 -0.5493,0.2923 -0.9624,0.1281c-1.0762,-0.4277 -1.2591,-1.423 -1.2604,-1.4267c-0.011,-0.0289 -0.0542,-0.1014 -0.0617,-0.1888c-0.0077,-0.0896 -0.0232,-0.1386 -0.0625,-0.194c-1.8346,3.7407 0.3525,6.1843 -1.0585,6.5107l-6.4112,0.1163l0.3459,-9.1854c-1.0552,0.8967 -0.5782,2.9224 -0.6559,5.4524c-0.5917,-0.4794 -1.1844,-0.7517 -1.9595,-1.2634c-3.251,0.6494 -2.001,5.8033 -1.2811,8.2307c0.8205,2.7664 1.5282,5.5111 2.003,8.4416l0.507,3.2032c-1.3433,0.9167 -2.6082,1.1475 -4.3859,1.5772c-2.1245,0.5136 -2.8878,0.431 -3.4723,2.5366c0.6944,2.3851 1.8467,2.6805 3.8809,3.8057c1.6045,0.8876 2.8098,1.5822 4.6342,2.2289c-1.0078,1.7277 0.0778,0.9172 -2.7249,0.9232c-5.2572,0.0114 -4.4935,-2.8869 -7.0702,-4.142c-0.7109,1.095 0.2394,2.0436 0.655,2.747c1.1686,0.3174 1.8711,0.8591 2.6443,1.5913c-1.4683,0.0075 -2.7999,0.0206 -4.1901,0.5055c-1.8651,0.6505 -1.9065,1.1986 -2.3492,2.9254c1.9064,0.7536 5.0454,-0.4987 8.3538,0.3234c3.1929,0.7934 3.648,1.2751 7.3042,1.4723l0.9248,0.4168c-0.5226,2.2577 -0.5115,1.577 0.6689,3.2376c2.18,-0.0443 1.6547,-0.0447 3.3713,-0.8783c-0.5055,1.7827 -0.5323,1.7181 -2.0301,2.4524c0.0161,0.021 0.4282,0.6342 0.5448,0.7687c0.6081,0.7018 -0.0429,0.4652 0.9486,0.7954c0.4054,-1.7294 1.0117,-1.5953 1.4486,-3.5712c0.574,-2.5956 0.6733,-2.7316 2.1758,-2.8176c0.3316,1.6804 -1.7214,6.7183 -1.7238,6.7349l0.5826,0.7601c0.8344,-2.091 1.3468,-3.0864 1.3858,-5.5631c1.7685,-0.0911 0.269,-0.0137 0.9375,-0.4858c-0.3849,-2.614 -1.0498,-3.61 0.0999,-6.0962c-1.1237,-1.036 -1.8337,-1.3825 -2.9474,-2.591c-1.2212,-0.4639 -0.7582,-0.5856 -1.9294,-0.2327c0.433,0.656 -0.0899,0.1866 0.7631,0.8229c0.0198,0.0148 1.089,0.6007 1.1361,0.6279c0.9414,0.5434 0.9386,0.5681 1.775,1.4719l-0.5897,2.6526l-4.839,-4.2577c-0.738,-0.0102 -0.2035,0.3197 -0.4617,-0.1365l0.6059,-1.0198l1.065,-2.1383l4.4178,0.1027c0.9786,-3.0894 -1.0547,-4.558 1.0973,-6.4894c1.6364,-1.4685 2.4068,-0.51 3.5639,0.3309c0.0617,-1.1189 0.4586,-0.4288 0.0013,-1.3599l2.2499,-0.0318c-0.1752,-0.3504 0.9368,-0.9511 -1.2011,-0.7164c-1.4052,0.1542 0.0356,-0.1203 -1.0072,0.4755c-0.0951,0.0544 -0.59,0.5023 -0.6661,0.5919l-0.6978,-1.0584c-1.5525,-0.0293 -1.8273,-0.4416 -3.0452,-0.3292c-0.472,0.0436 -0.426,0.0775 -0.6025,0.1319c-1.6092,0.4961 -1.046,0.1196 -1.3831,0.9047c1.0462,0.3884 0.5594,0.1267 1.7671,0.0017l-0.0032,2.1132c-0.0923,-0.0727 -0.5936,-0.2956 -0.7156,-0.3559c-1.654,-0.8174 -1.0447,-0.1469 -1.9323,-1.0517l-0.1261,2.4897c-0.0062,-0.0387 -0.0164,0.2224 -0.0464,0.3271l-1.764,0.0019l0.3075,-0.8352c-0.0074,-0.0383 -0.0234,-0.1437 -0.041,-0.1812l-0.3427,-0.3748c-0.0489,-0.0523 -0.2491,-0.0344 -0.2915,-0.1878c-0.0467,-0.1689 -0.2208,-0.1273 -0.336,-0.1814c1.4947,0.3824 1.488,0.5987 2.6835,-0.0018c-0.5834,-0.4268 -0.1875,-0.1019 -1.3147,-0.3457c-1.7505,-0.3787 -0.8932,0.5673 -1.638,-0.7108c-0.5941,1.9656 -0.1884,1.965 -0.0854,2.5137c0.0973,0.0759 0.2186,0.1528 0.3062,0.2083l1.5795,0.9383c1.9923,1.1264 2.0272,0.3828 3.757,-0.4853c-0.6725,1.5458 -0.616,1.989 -0.7038,3.041c-1.2888,-0.3685 -0.735,-0.5436 -1.7639,-1.2771c-0.7325,0.1454 -1.0798,0.5609 -1.7621,1.4076c-0.0572,-0.9736 0.4607,-1.6473 -1.342,-1.4359c-2.9425,0.3452 -0.0574,-0.1541 -1.2204,0.6551l-0.9654,0.7808c0.5234,-0.7863 1.6719,-0.7203 -0.3311,-1.3864c-1.4741,-0.4903 -1.3368,0.1406 -1.554,0.6177c0.5745,1.0439 0.4668,0.3629 1.3786,1.1232c-0.7062,1.0332 -0.9644,1.0614 -1.5276,1.8533c-2.5262,-0.6049 -5.1751,-1.8134 -6.6658,-3.2644c1.4366,-1.0667 3.6079,-1.1114 4.0197,-3.2114c-0.0929,-0.0084 -3.7144,1.8225 -4.794,2.3273c-0.3311,-0.5221 -0.8926,-1.0455 -1.4507,-1.6335c1.8006,-0.7804 5.2834,-1.7552 7.1339,-2.3752l0.1052,-1.2468c0.2544,-1.7092 0.2638,-1.9912 0.2122,-3.5289c0.2959,-3.1033 -1.8644,-8.0641 -2.2721,-11.3585c2.5431,0.7499 1.1137,-0.0271 2.528,0.08c3.261,0.7983 9.8474,-0.0149 13.4465,-0.0079c3.6579,0.0072 10.0892,0.7508 13.4653,0.0431c1.1436,-0.1615 0.0234,0.653 2.5511,-0.0937c-0.4772,3.4813 -2.5852,8.1557 -2.2296,11.4842l0.3721,3.4349l0.5469,-3.0431c0.6414,-3.309 1.2602,-5.6628 2.1165,-8.7162c0.6745,-2.4053 1.776,-7.7084 -1.3667,-7.9725c-1.3244,0.5528 -1.0449,0.2889 -1.9858,1.4296c-0.1203,-1.1573 -0.0848,-1.9914 -0.0683,-3.1396c0.0418,-2.9225 -0.0858,-2.1999 -0.6997,-2.5222c0.6474,2.8569 -0.1409,6.0875 0.467,9.1055l-7.6232,-0.1229c0.8939,-2.5301 1.451,-3.6063 0.0988,-6.4102l-0.1955,0.5602c-0.1943,0.4588 0.1983,-0.07 -0.2441,0.5029c-0.0124,0.016 -0.9505,0.7236 -0.9519,0.7241c-0.4158,0.1606 -0.5575,1.5398 -1.0419,-0.3684c-0.3654,-1.4394 -0.0136,-0.3184 0.0361,-0.8991c0.0076,-0.0882 0.1384,-0.5697 0.1527,-0.6863c0.6876,0.8829 0.4404,1.7796 1.1863,1.1727c0.2312,-0.4267 0.354,0.1726 -0.0213,-0.7547c-0.6945,-1.7159 -1.6823,-0.6778 -1.8706,-0.6453c-0.0364,0.0063 -0.138,0.0201 -0.1719,0.0252c-0.0307,0.0047 -0.1288,0.0031 -0.1573,0.0074c-0.8032,0.1215 0.6651,-0.478 -0.4125,0.0578c-0.0361,0.018 -0.6913,0.7176 -0.9425,0.9179l-0.821,-2.9841c2.2505,0.0523 6.1342,0.622 7.9474,-0.2329l0.6379,-3.4315l-0.4416,0.3097c-0.0402,0.0372 -0.1373,0.1103 -0.1761,0.1531c-0.3982,0.4392 -0.5049,1.4446 -0.6092,1.9683c-0.016,0.0803 -0.0636,0.3001 -0.0743,0.3498l-0.0648,0.2549c-9.5891,-2.3417 -11.0851,-0.0061 -15.6145,-0.0958z" class="fil3" id="_386864840"/>
    <path stroke="null" d="m120.184588,55.280411c0.3021,1.37 -0.4154,0.3185 0.5481,0.9534c0.733,-0.7219 0.3453,0.416 0.7691,-1.021l0.9471,-0.4553c-0.0793,-2.1028 -0.6491,-2.197 -0.5645,-4.3676c0.6611,0.3394 0.3648,0.1276 0.6605,1.0054c0.0168,0.0498 0.2597,1.344 0.2873,1.4994l1.832,8.9738c-4.153,2.6586 -8.0609,6.8586 -12.3982,9.49c-0.9528,-2.2989 -1.0892,-5.0456 -1.3921,-7.5348c-0.3499,-2.8747 -1.4318,-4.7346 -1.8709,-7.0697c1.272,-1.5535 4.731,-4.0804 5.3273,-4.9949c0.5354,-0.821 0.2258,0.1174 0.4129,-1.0102l4.6976,-4.0814c3.2014,5.4238 -2.58,3.7305 -1.6019,7.7573c2.4414,0.2266 1.4467,-0.9115 3.1273,-6.0766c0.4962,1.1068 0.6946,2.0454 0.1272,3.4833c-1.1318,2.8684 -0.2814,2.0828 -0.9088,3.4489zm-6.4928,-7.798c-0.9189,1.2777 -0.3532,1.4593 -0.6641,2.4755c-0.1711,0.5591 -0.6971,1.1138 -0.9096,2.3262c-0.09,-0.0354 -0.1959,-0.1206 -0.2431,-0.1579l-1.653,-1.3695c0.6544,-1.5297 0.8152,-0.752 1.4586,-2.4725c-1.4685,0.9306 -3.6974,3.3937 -0.7538,4.0549c-0.5373,0.4875 1.4476,1.1218 -3.0302,0.0676l0.6459,-1.4247c-1.1075,0.7592 -0.3469,0.4702 -1.5662,0.9038c-0.2788,-1.542 -0.4225,-0.8521 -0.8422,-2.1118c-0.307,-0.9216 -0.4217,-0.8274 0.1298,-1.7715c0.0381,-0.0651 0.1031,-0.1481 0.1478,-0.2091c0.8698,-1.1881 0.0795,-0.1022 0.7333,-0.7118c0.0558,-0.0521 0.1337,-0.1192 0.19,-0.1711c1.7117,-1.5811 0.2684,-1.2191 2.1088,-1.0635c1.1285,1.5049 -0.2106,0.0145 0.4604,1.5594c1.2303,-0.5589 0.3893,-1.0281 1.4866,-0.0706c0.5262,0.4592 0.3178,0.645 1.2878,1.3641c-2.3987,-3.6337 -2.2421,-1.1746 -1.6224,-3.0778c1.3168,-0.1124 0.2176,-0.3232 1.3107,0.783c0.6174,0.6248 0.4057,0.5535 1.3249,1.0773zm-4.4258,-11.4908c3.25,3.6118 -5.3285,7.0557 -0.5278,7.55c1.4397,-1.1825 0.6977,-1.9467 1.1227,-3.5937c0.5701,-2.209 0.4895,-0.779 0.3818,-3.5875c0.7981,1.5881 1.2344,2.1238 2.5762,2.9792c-0.1221,1.0331 -0.8524,2.6584 -0.1935,3.4077c1.1877,1.3505 2.0819,-0.7254 2.1372,-1.0319c0.0322,-0.1785 0.0661,-0.2302 0.128,-0.331c0.8902,1.6598 2.3153,3.1601 3.0641,5.8446c-1.3605,1.5689 -2.8126,2.0854 -3.2115,3.5199c-0.5901,-1.7462 0.1094,-1.8787 -1.0514,-3.2665c0.9098,-1.0233 0.3142,-0.2561 1.655,-0.959c-0.135,-0.8186 -0.0664,-0.3921 -0.4017,-1.0024l-0.2626,-0.41c-0.0376,-0.0509 -0.1045,-0.1309 -0.1449,-0.1783l-1.566,-1.2433c-0.9896,0.7123 -0.3972,0.3879 -1.0584,1.554l-0.8391,-0.2829c-2.0126,-0.6674 -3.6185,-0.8036 -5.1504,0.8814c-1.069,1.1759 -0.9349,1.3805 -0.9991,2.7262c-0.1163,2.4377 -0.274,0.4923 -0.9702,2.0748c0.8612,2.069 -0.1031,2.0085 2.5996,1.9979c-0.3368,1.2147 0.0354,2.0514 1.2584,2.2141l1.1692,-0.2176l-0.6546,-0.3438c-0.5002,-0.1981 -0.9928,0.3975 -1.2949,-1.1688c1.737,0.6083 1.5124,0.7471 3.651,1.0594c-0.6803,1.3983 -0.7315,0.9915 -1.6917,2.1115l-1.5773,1.7972c-1.582,-1.0069 -3.2583,-4.7627 -4.395,-6.5689c-1.0699,-1.7002 -1.3345,-1.9552 -0.2123,-3.8943c0.7554,-1.3052 1.7153,-2.5401 1.3039,-3.2746c-0.5866,1.312 -1.2569,2.1982 -2.0433,3.6146c-0.8044,1.4487 -0.7872,2.4145 -1.4805,3.8903l0.3101,0.418c0.8321,-0.3665 0.7766,-0.2895 1.3194,0.7253c0.3113,0.5819 0.4731,0.9724 0.8638,1.6374c0.5894,1.0033 1.004,2.0499 1.8094,2.9217c1.0439,0.8761 1.8767,1.3856 2.3119,2.8875c0.4326,1.4928 -0.018,3.2437 0.4805,4.369l0.1488,-1.2921c1.2085,-0.2884 0.6234,-0.168 1.5396,-0.9256l1.7219,11.4979c1.6108,-0.3571 6.2679,-4.3259 7.9924,-5.587l7.2057,-6.1136c-0.0824,-1.6575 -1.423,-6.8461 -1.8474,-8.954c-1.2485,-6.1999 -0.9248,-4.4453 -2.7789,-7.9793c0.065,-0.0684 0.1663,-0.1442 0.214,-0.1853l1.4558,-1.4639c0.4352,-0.652 0.6389,-1.1573 0.8672,-1.7975c-3.5372,1.0869 -2.7789,2.1134 -4.8795,3.7586c-1.0348,-1.2474 -1.3522,-2.9627 -2.4838,-4.1774c-0.2189,-0.235 -5.7599,-4.8139 -5.8238,-6.7592c-0.0471,-1.4348 1.4747,-1.057 1.562,-4.4309c-2.4062,1.636 -2.1398,1.7419 -2.5341,2.9471l-0.7759,2.635z" class="fil4" id="_386864000"/>
    <path stroke="null" d="m56.745688,55.145411l0.6838,0.9661c0.848,-0.181 0.5977,0.1708 1.0033,-0.4186c2.094,-1.4771 2.7876,-1.6714 5.3556,-0.228c1.4183,0.7972 0.3156,-0.2649 1.1517,1.0201c1.1611,1.7846 0.7,2.7696 0.6783,3.1862l0.0807,1.178c1.3021,-0.9112 0.1765,0.1381 0.5149,-1.6574l0.1906,-0.5852c0.041,0.1013 0.0795,0.2237 0.1014,0.3118l0.2271,1.0193c0.0782,0.5021 0.0456,0.7068 0.0802,1.1835c-0.9443,0.6687 -0.5536,0.4725 -1.8748,0.487c1.0223,1.7123 0.823,1.508 -1.0233,3.1701c-0.9498,-0.3992 -0.5153,-0.529 -1.4096,-0.595c-1.4918,-0.1101 -1.3453,0.6127 -2.961,0.1825c-2.0962,-0.5582 -3.3754,-2.4299 -3.2032,-5.1712l0.204,-0.5664c-1.413,-0.1525 -0.8581,0.1017 -1.958,-0.4635l0.4709,-1.4714c0.0349,-0.0777 0.0902,-0.1621 0.1259,-0.2349l0.3566,-0.6301c0.147,-0.308 0.0673,0.4639 0.196,-0.627c-2.2337,-1.5222 0.6075,-2.3577 -0.6399,-5.1291l-2.4423,11.7132c1.6104,1.188 11.1799,8.9663 12.3389,9.6025c1.007,-2.0398 1.155,-5.0864 1.4449,-7.5604c0.3314,-2.8276 1.3139,-4.6231 1.9583,-7.182l-6.1129,-5.6366c-0.0014,-0.0658 0.0488,-0.1554 0.0596,-0.1884c0.506,-1.5466 0.4988,-2.3066 1.239,-3.2392l-0.3638,-0.3586c-0.6685,-0.4989 -0.5269,-0.2652 -1.3659,-0.6063c0.4602,-1.4316 1.7479,-2.6031 2.9879,-2.9486c0.6256,2.1311 -0.3463,0.8237 1.1614,1.6923c0.6257,-0.9298 2.26,-1.0639 3.37,-0.7148c0.8124,0.2555 1.3163,0.9038 1.7851,1.3859c1.8951,1.949 0.7458,1.3007 1.4699,3.4958c0.5949,1.8038 0.823,0.083 0.4753,1.879c-0.0453,0.234 -0.164,0.5771 -0.3459,0.7545c-0.9543,0.9307 -0.6293,0.5131 -1.9332,0.2728c0.3253,1.7822 0.6487,1.3246 -0.538,2.2254c-0.5217,-0.7394 0.1974,-0.7607 -0.3528,-1.4244c-1.1657,0.4424 -1.4343,0.3924 -0.8238,1.1023l0.6125,0.592c-2.8348,0.3679 0.1404,0.2785 -1.635,-0.5555c-0.6989,-0.3283 0.1476,-0.574 -1.4157,-0.0839c0.2959,0.5418 2.4688,3.2967 3.6448,3.8001c0.995,-1.4177 2.0803,-3.4416 3.013,-5.0075c3.5203,-5.9104 1.3765,-2.5423 1.6646,-5.383c-0.261,-0.9075 -5.5776,-10.7507 -6.9418,-11.7999c-3.0631,4.054 5.2937,6.7506 0.4703,7.6479c-1.0004,-0.86 -1.5898,-5.8472 -1.4498,-7.0355c-0.7253,1.0871 -1.5524,2.2553 -2.5688,2.8728c0.1272,0.9895 0.9015,2.5727 0.1692,3.3787c-1.3863,1.5259 -2.196,-1.2527 -2.2482,-1.3338l-3.1636,5.2906c1.119,2.3402 1.4173,0.4105 2.3543,3.3283l-3.7171,-3.4304c-1.1585,1.946 -1.5087,3.2321 0.2357,4.6626c1.5806,1.2962 2.6785,3.1463 -0.1283,3.2151l-1.6587,-6.0611c-0.9089,1.2931 -0.7033,1.8901 -0.1317,3.3666c0.556,1.4361 0.5734,1.4275 0.5314,3.3447z" class="fil5" id="_386858576"/>
    <path stroke="null" d="m63.582388,47.581411c1.2779,-0.6928 1.6382,-0.8364 2.0018,-2.2842c1.6568,1.1017 1.3529,0.3377 2.5714,0.6949c1.6831,0.4935 4.2538,2.2894 2.2596,5.2464c-0.9676,1.4347 -3.0794,2.8101 -5.2866,0.4573c-0.0533,-0.0569 -0.1268,-0.1279 -0.1782,-0.1876c-1.7041,-1.9801 -0.0044,-2.3393 -1.368,-3.9268zm5.9783,17.0333c1.4518,-3.1031 -0.8767,-4.7058 2.8717,-6.7973c0.8244,-1.4059 2.5446,-5.0811 3.654,-5.8975c-0.1708,-1.2312 -0.2577,-0.4384 0.2275,-0.7054c-0.4843,-1.8134 -0.1229,-1.8414 -1.3211,-3.5156c-0.2881,2.8407 1.8557,-0.5274 -1.6646,5.383c-0.9327,1.5659 -2.018,3.5898 -3.013,5.0075c-1.176,-0.5034 -3.3489,-3.2583 -3.6448,-3.8001c1.5633,-0.4901 0.7168,-0.2444 1.4157,0.0839c1.7754,0.834 -1.1998,0.9234 1.635,0.5555l-0.6125,-0.592c-0.6105,-0.7099 -0.3419,-0.6599 0.8238,-1.1023c0.5502,0.6637 -0.1689,0.685 0.3528,1.4244c1.1867,-0.9008 0.8633,-0.4432 0.538,-2.2254c1.3039,0.2403 0.9789,0.6579 1.9332,-0.2728c0.1819,-0.1774 0.3006,-0.5205 0.3459,-0.7545c0.3477,-1.796 0.1196,-0.0752 -0.4753,-1.879c-0.7241,-2.1951 0.4252,-1.5468 -1.4699,-3.4958c-0.4688,-0.4821 -0.9727,-1.1304 -1.7851,-1.3859c-1.11,-0.3491 -2.7443,-0.215 -3.37,0.7148c-1.5077,-0.8686 -0.5358,0.4388 -1.1614,-1.6923c-1.24,0.3455 -2.5277,1.517 -2.9879,2.9486c0.839,0.3411 0.6974,0.1074 1.3659,0.6063l0.3638,0.3586c-0.7402,0.9326 -0.733,1.6926 -1.239,3.2392c-0.0108,0.033 -0.061,0.1226 -0.0596,0.1884l6.1129,5.6366c-0.6444,2.5589 -1.6269,4.3544 -1.9583,7.182c-0.2899,2.474 -0.4379,5.5206 -1.4449,7.5604c-1.159,-0.6362 -10.7285,-8.4145 -12.3389,-9.6025l2.4423,-11.7132c1.2474,2.7714 -1.5938,3.6069 0.6399,5.1291c0.7758,1.6885 -0.0869,0.516 1.5773,1.1682l-0.5684,-1.2241c0.042,-1.9172 0.0246,-1.9086 -0.5314,-3.3447c-0.5716,-1.4765 -0.7772,-2.0735 0.1317,-3.3666l1.6587,6.0611c2.8068,-0.0688 1.7089,-1.9189 0.1283,-3.2151c-1.7444,-1.4305 -1.3942,-2.7166 -0.2357,-4.6626l3.7171,3.4304c-0.937,-2.9178 -1.2353,-0.9881 -2.3543,-3.3283l3.1636,-5.2906c0.0522,0.0811 0.8619,2.8597 2.2482,1.3338c0.7323,-0.806 -0.042,-2.3892 -0.1692,-3.3787c1.0164,-0.6175 1.8435,-1.7857 2.5688,-2.8728c-0.14,1.1883 0.4494,6.1755 1.4498,7.0355c4.8234,-0.8973 -3.5334,-3.5939 -0.4703,-7.6479c-0.1617,-0.6878 -0.2948,-0.9943 -0.5223,-1.7248c-0.6776,-2.1751 -0.4902,-2.4039 -2.8207,-3.765c0.0208,2.4499 0.8872,2.7311 1.6823,4.0196c-0.5102,1.9617 -2.7099,4.3678 -4.2133,5.7437c-4.8353,4.4252 -2.5648,3.8276 -4.2391,5.6127c-1.9369,-1.805 -1.676,-2.943 -4.829,-3.7455c0.4993,1.1915 0.8393,1.8844 1.6822,2.6839c0.0576,0.0547 0.1497,0.1282 0.2039,0.1773l0.4318,0.3728c0.0362,-0.0666 0.1544,0.1215 0.2235,0.1911c-0.0539,0.08 -0.1396,0.1744 -0.1793,0.2272l-1.0031,1.6094c-0.6944,1.6343 -1.3623,4.763 -1.6778,6.4856c-0.4149,2.2661 -1.6409,6.7628 -1.7776,8.6111l3.5902,2.9775c1.3892,1.082 2.1988,2.0563 3.6187,3.0937c1.6642,1.2158 6.4906,5.3854 8.0223,5.6674l1.6042,-11.527c1.5108,1.0522 1.4831,0.5316 1.7128,2.005z" class="fil4" id="_386859464"/>
    <path stroke="null" d="m94.645588,71.126411c0.5202,-2.1645 -0.1616,-1.4453 -0.1684,-3.4298c1.4133,0.3038 0.5542,0.3025 1.2497,0.3568l3.0528,-0.2646c0.1183,1.8603 -0.6068,0.9794 -0.2745,3.4274l-0.9866,-0.5547c-0.051,-0.0171 -0.1421,-0.0473 -0.1881,-0.0547c-0.0333,-0.0053 -0.1094,0.0226 -0.1396,0.0237l-0.9043,0.161c-0.0357,-0.0054 -0.124,-0.0763 -0.1592,-0.0817c-0.939,-0.1434 -0.942,0.4657 -1.0721,0.2428c-0.0708,-0.1213 -0.2662,0.1361 -0.4097,0.1738zm-15.8924,0.0898c0.1515,-2.5356 -0.3145,-2.2266 -0.5265,-3.1733c1.568,-0.6015 1.5035,0.4104 4.5327,-0.3441c0.2929,3.8777 -0.5942,-1.5822 -0.1274,3.0098c-1.5144,0.5031 -2.2136,0.2454 -3.8788,0.5076zm-3.8264,4.0916c0.0516,1.5377 0.0422,1.8197 -0.2122,3.5289l0.6806,0c0.0366,-0.0509 0.0632,-0.2137 0.0678,-0.1756l0.1034,-0.4154c0.0525,-0.5248 0.0311,-0.7125 -0.0047,-1.1785c0.229,-2.7851 0.3728,-0.0747 0.6853,-2.4363c1.2278,-0.8407 1.4504,-1.4318 1.7989,-2.3184c1.7502,-0.53 2.8701,-0.1287 4.5861,-0.2873c1.104,1.5746 0.8871,0.7227 2.3815,3.3042c0.0329,0.0569 0.09,0.168 0.1443,0.246c0.1342,-1.8866 1.0703,-1.7628 0.3815,-6.5592l-1.2337,1.9632l-0.0839,-2.4336c2.687,-1.365 0.6736,-0.7123 1.5853,-3.1757c0.9325,1.8112 -0.2035,6.0975 0.2851,8.6536c0.2002,1.0479 0.2961,1.7021 1.8315,1.601c1.5495,-7.023 0.0422,-5.4045 -0.1871,-7.6822c-0.0877,-0.8712 0.2273,-1.7024 1.1461,-1.4678c1.6418,0.4194 0.3384,2.7589 0.3378,2.761c-0.4504,1.4382 -0.7363,4.8567 0.8199,6.4755c0.8543,-0.2813 0.2947,-0.0014 0.7963,-0.5794c0.0629,-0.0724 0.2396,-0.3113 0.2918,-0.4029c0.3205,-0.563 0.1266,-0.0576 0.297,-0.7648c0.4465,-1.8527 -0.3531,-5.3905 0.1067,-8.6884c0.7123,1.5004 -0.1441,1.7271 0.6069,2.7636c1.1486,1.5849 1.0282,-0.2431 0.9777,3.1189l-1.2016,-2.4051c-0.1732,1.0969 -0.7628,4.9414 0.1145,5.7603c1.34,1.2507 0.2258,0.4861 1.3952,-0.2459c0.0829,-1.6308 -0.12,-0.3418 0.2923,-1.1296l0.498,-0.687c0.0584,-0.0772 0.1555,-0.1838 0.2054,-0.2471c0.0516,-0.0656 0.1428,-0.17 0.2059,-0.2611c0.6586,0.3463 0.7658,0.4637 1.2031,1.0917c-0.0041,-1.0888 -1.4528,-0.6175 0.6309,-1.0238c2.5188,-0.4912 0.8668,0.4803 0.8435,1.0238l0.3841,-0.5198c0.061,-0.0534 0.1703,-0.166 0.2399,-0.2231l0.5791,-0.3662c1.152,1.6428 -0.089,-0.1274 1.3413,1.565c0.362,0.4285 0.6321,0.8191 1.1163,1.2922l0.4693,1.7254c0.4486,0.4719 0.1763,1.9444 0.4219,3.025l0.6769,0l0.2343,-0.3619l0.0211,-0.2811l-0.3721,-3.4349c-0.4943,-0.8639 -0.423,-1.1953 -0.4357,-2.4577c-0.0095,-0.9325 0.0225,-1.8983 0.0239,-2.8377c0.0032,-2.0269 -0.0931,-4.0841 0.0903,-6.0951c-3.3761,0.7077 -9.8074,-0.0359 -13.4653,-0.0431c-3.5991,-0.007 -10.1855,0.8062 -13.4465,0.0079c0.0991,2.2137 0.3896,9.7313 -0.2559,11.2785z" class="fil5" id="_386865800"/>
    <path stroke="null" d="m87.288588,35.948411c0.0043,-0.852 0.249,-1.6589 0.2613,-1.7132c0.0854,-0.3754 0.1436,-0.7318 0.2406,-1.1339c0.2649,-1.0987 0.2388,-0.7274 -0.1182,-1.3956l-0.4518,-0.7025c3.5926,0.4582 1.4441,-0.6372 3.1517,4.5844c-0.6939,0.4704 -0.7871,0.8187 -1.7424,1.174c-0.2659,-0.5301 -0.4021,0.6985 -0.2642,-0.7622c0.1342,-1.4211 -0.2038,0.3787 0.3477,-0.5808c0.6538,-1.1375 0.8114,1.042 0.3688,-1.3836c-1.4592,1.3499 0.2756,0.7725 -1.7935,1.9134zm-2.2793,-0.0656c-1.4451,0.3472 -1.2184,0.2559 -1.3834,-1.0277c-0.2937,-2.2837 0.9351,-4.1453 3.2489,-4.8485c-0.0466,1.5115 -0.5727,1.56 -1.6349,2.406c-0.0999,1.7741 0.5562,0.8442 -0.4907,2.2281c0.0978,0.0652 0.3584,0.1557 0.4319,0.4125c0.2953,1.0319 0.2886,0.1982 -0.1718,0.8296zm5.2352,-5.9332c3.501,0.7942 2.9242,3.7346 3.0707,4.8214c0.1047,0.777 -0.1041,-0.126 0.2517,1.0414l-0.3895,0.4473c-0.9151,0.9766 -0.6511,0.6722 -1.6276,1.239c-0.9932,0.5765 -2.2906,0.7643 -0.5785,1.6184c0.0352,-0.112 0.2796,-0.6335 0.426,-0.7246c0.8803,-0.5477 1.2584,-0.2455 1.4006,-0.2055c-0.0666,1.344 -0.6604,1.4348 -2.0514,1.8814c-1.4396,-1.1059 -0.9182,-1.2916 -2.1167,-1.7985c-0.8655,0.5226 -0.6856,0.7976 -1.2607,1.5797c-1.3931,0.0914 -0.3647,0.2186 -1.6854,-0.2121c-1.2884,-0.4202 -1.3263,0.1497 -1.0318,-1.9593c2.1233,0.7085 0.6598,0.5205 1.8612,1.4389l1.0181,-1.4148l3.3691,-0.884c1.2618,-1.0735 0.6144,-1.5532 1.5332,-2.0867c-0.1652,-0.5815 -0.1125,-0.1261 -0.3514,-0.6007c-0.3491,-0.6936 0.0055,0.7418 -0.318,-0.6861c-0.2903,-1.2815 -0.0595,-0.7839 0.446,-1.0718c-0.0657,-0.0337 -0.9125,-0.4752 -0.9408,-0.4993l-0.227,-0.2725c-0.9645,-1.2572 0.1905,0.2236 -0.17,-0.3706c-0.2103,-0.3465 -0.4643,-0.271 -0.6278,-1.281zm-2.275,-2.1779c0.0394,-0.0051 0.1317,-0.0075 0.1675,-0.0118c0.962,-0.1165 1.72,-0.0629 2.4703,0.4193c-0.4802,1.6984 -0.664,2.6596 -3.157,2.2324l-0.8464,-2.3322l1.3656,-0.3077zm1.0167,-1.806l-0.7932,0.0599l-4.1493,-0.1438c-0.1498,-0.3692 -0.3479,0.5352 1.1509,-0.5854c-0.7578,0.0697 -1.7765,0.305 -2.3217,0.3415c-1.2174,0.0815 -1.0706,0.0698 -1.8759,-0.341c0.8422,3.6173 0.6095,10.5531 0.5307,14.9929l14.3586,0.0278c-0.0303,-3.9264 0.0418,-7.5521 -0.0297,-11.4328c0.0261,-0.0104 0.0747,-0.0042 0.0807,0.0246c0.0147,0.0711 -0.0796,0.0317 0.2147,0.0373l0.7263,-0.0619c-0.5331,-0.4907 -0.6796,-0.5548 -1.1461,-1.4111l0.6569,-2.1089c-1.2865,0.6053 0.3052,0.3521 -1.7047,0.3404c-0.0484,-0.0003 -1.3816,-0.2319 -1.5032,-0.2568c-1.0314,-0.2108 -1.9565,-0.3887 -3.0335,-0.6473l-0.2775,0.0339l3.323,1.1204l-4.207,0.0103z" class="fil5" id="_386864888"/>
    <path stroke="null" d="m80.515688,82.200411c-1.3476,1.4366 -0.088,0.0879 -1.273,0.9602c-1.115,0.8207 0.8904,0.3458 -1.2485,0.7407c-2.1538,0.3977 -0.6907,-0.7918 -2.4372,-0.8303c1.129,-1.7129 0.8932,0.4717 0.7876,-1.5606c-0.0713,-1.3727 -0.0002,0.0869 -0.6092,-1.1572l2.1471,0.023c0.1058,0.005 0.8847,0.0655 1.1819,0.1051l1.1633,0.2619c-1.0314,0.3161 -1.2599,0.1752 -2.4881,0.0018l0.5929,0.4027c0.7481,0.7172 0.1611,0.8752 0.1378,0.9551c-0.0078,0.0269 -0.036,0.2368 -0.0421,0.1915c-0.0066,-0.0493 -0.0564,0.1455 -0.0215,0.2707l2.109,-0.3646zm-4.9536,-5.1329c0.0358,0.466 0.0572,0.6537 0.0047,1.1785l-0.1034,0.4154c-0.0046,-0.0381 -0.0312,0.1247 -0.0678,0.1756c-0.1554,1.1993 -0.1945,2.4651 -0.1582,3.6965c0.0153,0.5169 -0.0041,1.0648 0.1767,1.5547c0.3986,1.0798 0.5272,0.8205 1.1016,1.1763c0.2172,-0.4771 0.0799,-1.108 1.554,-0.6177c2.003,0.6661 0.8545,0.6001 0.3311,1.3864l0.9654,-0.7808c1.163,-0.8092 -1.7221,-0.3099 1.2204,-0.6551c1.8027,-0.2114 1.2848,0.4623 1.342,1.4359c0.6823,-0.8467 1.0296,-1.2622 1.7621,-1.4076c1.0289,0.7335 0.4751,0.9086 1.7639,1.2771c0.0878,-1.052 0.0313,-1.4952 0.7038,-3.041c-1.7298,0.8681 -1.7647,1.6117 -3.757,0.4853l-1.5795,-0.9383c-0.0876,-0.0555 -0.2089,-0.1324 -0.3062,-0.2083c-0.103,-0.5487 -0.5087,-0.5481 0.0854,-2.5137c0.7448,1.2781 -0.1125,0.3321 1.638,0.7108c1.1272,0.2438 0.7313,-0.0811 1.3147,0.3457c-1.1955,0.6005 -1.1888,0.3842 -2.6835,0.0018c0.1152,0.0541 0.2893,0.0125 0.336,0.1814c0.0424,0.1534 0.2426,0.1355 0.2915,0.1878l0.3427,0.3748c0.0176,0.0375 0.0336,0.1429 0.041,0.1812l-0.3075,0.8352l1.764,-0.0019c0.03,-0.1047 0.0402,-0.3658 0.0464,-0.3271l0.1261,-2.4897c0.8876,0.9048 0.2783,0.2343 1.9323,1.0517c0.122,0.0603 0.6233,0.2832 0.7156,0.3559l0.0032,-2.1132c-1.2077,0.125 -0.7209,0.3867 -1.7671,-0.0017c0.3371,-0.7851 -0.2261,-0.4086 1.3831,-0.9047c0.1765,-0.0544 0.1305,-0.0883 0.6025,-0.1319c1.2179,-0.1124 1.4927,0.2999 3.0452,0.3292l0.6978,1.0584c0.0761,-0.0896 0.571,-0.5375 0.6661,-0.5919c1.0428,-0.5958 -0.398,-0.3213 1.0072,-0.4755c2.1379,-0.2347 1.0259,0.366 1.2011,0.7164l-2.2499,0.0318c0.4573,0.9311 0.0604,0.241 -0.0013,1.3599c-0.0839,0.3771 -0.0819,0.5347 0.3731,0.7232l1.1732,-0.4343c0.9761,-0.4741 0.7062,-0.1957 1.4561,-0.9733l0.1726,2.8187c0.448,-0.0092 0.6372,0.0329 1.0939,-0.0708l0.67,-0.2785c0.2994,0.373 -0.034,0.7374 -0.3001,0.977l-0.6261,0.4324c0.0887,0.0318 0.2371,-0.0738 0.2798,0.0413c0.3865,1.0431 0.5119,-0.8783 1.4325,1.2826c-0.14,-0.0151 -1.7036,-0.16 -1.7529,-0.1745c-0.9708,-0.2865 -1.236,-0.7429 -1.8537,-1.1477c0.3665,2.3449 0.4279,0.0673 -0.6459,1.128c-0.0723,0.0715 -0.1699,0.1346 -0.2418,0.1998c-0.0765,0.0693 -0.1919,0.1555 -0.2577,0.2121c-0.0682,0.0587 -0.2163,0.1179 -0.2657,0.2223c1.122,0.6806 1.7745,-0.4392 2.1149,-0.7038c0.8126,0.1612 0.8245,0.0391 1.4111,1.4076c0.0522,-0.1219 0.1158,-0.4279 0.1673,-0.3609c0.3829,0.4984 -0.3186,-0.8991 1.2579,-1.106c0.3282,-0.043 0.667,0.072 0.9189,0.2445c0.1043,0.0714 0.1595,0.1448 0.2515,0.2345l0.5794,0.9879c0.0524,-0.1223 0.1224,-0.4274 0.1736,-0.3594c0.34,0.4515 -0.4154,-0.4629 0.9288,-1.0062c1.5016,-0.607 1.3452,0.3458 1.4824,0.5884c0.9151,-0.5697 1.1053,-0.4881 1.2457,-2.0434c0.1082,-1.1984 0.0079,-2.5099 -0.1289,-3.6794c-0.2456,-1.0806 0.0267,-2.5531 -0.4219,-3.025c-0.3657,1.0055 -1.0585,0.6447 -2.5474,0.6285c-7.1381,-0.078 -16.9852,0.2602 -23.3248,-0.0692z" class="fil6" id="_386863904"/>
    <path stroke="null" d="m114.742588,50.748411c-0.1871,1.1276 0.1225,0.1892 -0.4129,1.0102c-0.5963,0.9145 -4.0553,3.4414 -5.3273,4.9949c0.4391,2.3351 1.521,4.195 1.8709,7.0697c0.3029,2.4892 0.4393,5.2359 1.3921,7.5348c4.3373,-2.6314 8.2452,-6.8314 12.3982,-9.49l-1.832,-8.9738c-0.0276,-0.1554 -0.2705,-1.4496 -0.2873,-1.4994c-0.2957,-0.8778 0.0006,-0.666 -0.6605,-1.0054c-0.0846,2.1706 0.4852,2.2648 0.5645,4.3676l-0.9471,0.4553l0.3838,1.0548c0.0174,0.0448 0.0556,0.1439 0.0728,0.1867c0.0302,0.0754 0.1095,0.272 0.1404,0.343c0.1714,0.3928 0.3881,0.5403 0.6526,1.3233c-0.7873,0.4683 -0.4726,0.1754 -1.006,0.3831l-0.9003,0.3669c0.2367,1.2978 0.3799,3.0707 -0.6421,4.055c-0.1372,0.1321 -1.2377,0.7252 -1.5518,0.9077c-1.3463,0.7821 -0.7726,1.4551 -1.1872,0.7626c-0.0447,-0.0746 -0.1686,0.1224 -0.2591,0.1736c-3.1566,-0.8776 -5.6204,0.7496 -4.8418,-2.9849l-2.0378,-0.5353c0.012,-0.123 0.134,-1.5379 0.1576,-1.6495c0.1737,-0.8214 0.0269,-0.3965 0.372,-0.9092c0.5813,0.7462 0.0485,0.9351 0.4392,1.961l0.2663,0.2849c0.9507,-1.2477 -1.213,-3.313 2.0568,-5.7379c2.468,-1.8304 4.023,-0.0743 6.1312,0.9118l0.4362,-0.83c0.6274,-1.3661 -0.223,-0.5805 0.9088,-3.4489c0.5674,-1.4379 0.369,-2.3765 -0.1272,-3.4833c-1.6806,5.1651 -0.6859,6.3032 -3.1273,6.0766c-0.9781,-4.0268 4.8033,-2.3335 1.6019,-7.7573l-4.6976,4.0814z" class="fil5" id="_386862536"/>
    <path stroke="null" d="m95.696588,92.387411c0.0267,-0.0355 0.3677,-0.3943 0.5109,-0.5084c0.9031,-0.7194 -1.0183,0.2602 0.7762,-0.4395c-1.5866,4.667 0.5424,3.8718 0.4303,6.9998l-2.0833,-1.1141c1.1966,-1.4957 -0.9747,-3.1546 0.3659,-4.9378zm-5.654,5.0488l0.9915,0.1056c0.1263,3.1404 -0.3526,1.5329 0.9575,4.5532l0.5187,1.1888l0.5595,-0.8401c0.0767,-1.5851 -2.0638,-3.3996 -1.2669,-6.1804c0.4557,1.1946 0.8502,-0.0683 1.5172,2.6341c0.3679,1.4904 1.1554,1.9502 1.3086,3.4024c1.6946,-0.5305 0.0779,0.0798 0.8572,-0.5152l2.0467,-2.2569c1.2341,-1.7824 1.2966,-1.5442 0.8363,-3.7699l0.9226,-0.3589c3.4384,0.508 4.3105,-0.4265 7.2477,-1.2101c1.1589,-0.3091 2.8359,-0.6378 4.3159,-0.4019c1.6775,0.2674 2.7811,1.0134 3.9473,-0.4102l0.0399,-0.1647l-1.1654,-0.2231c1.7298,-1.5145 -7.7945,-2.5777 -11.7383,-1.7984l1.5569,2.9093l-1.0639,-0.0487l-2.8506,0.283c0.4658,-0.6173 0.6218,-0.7456 0.978,-1.3486c0.5265,-0.8913 0.2782,-0.3648 0.5989,-1.4335l-0.4932,-1.2793c-0.852,0.1674 -1.2175,0.437 -1.9114,0.724l-0.9705,-2.0957l-0.6878,-0.588l-0.3022,-0.1601l0.6546,1.4094c-0.0979,0.0591 -0.2354,0.0939 -0.3176,0.1297c-0.0801,0.0348 -0.2126,0.0861 -0.308,0.1293c-0.979,0.444 -4.5736,3.5343 -5.0773,3.9927c-0.0094,-0.2829 0.0053,-1.1074 -0.0816,-1.3453c-0.4492,-1.23 0.3952,-0.1654 -0.9148,-1.1408c-0.685,2.4311 0.4845,3.5978 -0.7055,6.1083z" class="fil7" id="_386861552"/>
    <path stroke="null" d="m79.512388,29.555411c1.2797,0.0788 0.0932,-0.7194 0.6547,0.3815l-0.0369,1.8619c-0.4301,-0.3138 -0.5671,-0.2874 -1.2392,-0.6137l-0.4586,1.5784c1.1636,-0.0242 0.7152,-0.2482 1.3302,0.7073c-0.4182,0.7656 0.2218,0.1583 -0.9291,0.9106c0.408,0.3971 0.624,0.5412 1.2078,1.0145l1.05,0.1916l-0.0042,5.2452l7.1361,0.0465l-0.5444,0.8843c-0.0287,-0.0686 -0.1121,0.2044 -0.1698,0.3058l0.6303,0.0728c-1.9379,1.4377 -0.3121,1.8915 -0.9208,2.7674l-1.3164,-0.2524l0.0113,0.7529c0.6372,1.9555 0.879,-1.0686 1.3096,4.6525c1.5813,-0.5474 1.2616,-0.4283 2.8159,-0.0153l0.5754,-3.979c1.1176,-0.0976 9.4431,-3.0643 8.2169,2.1402c-0.1593,0.6761 -0.5224,1.0592 -0.8106,1.3712c-1.0394,1.125 -0.4203,0.0436 -1.1231,1.1756c0.5711,0.0402 0.2383,-0.3786 0.3717,0.5489c1.5228,-0.4594 0.6896,0.37 2.0463,-0.7769c0.7249,-0.6127 0.2164,-0.1269 0.6677,-0.7953l0.608,-1.1704c1.3414,-3.7296 -2.3671,-5.3942 -5.5929,-4.8949c-1.3217,0.2046 -3.4131,0.8861 -5.1604,1.2959c0.4247,-1.865 0.5822,-1.9651 -0.6502,-2.8078l0.7109,-0.0944l-0.637,-1.1953l7.094,-0.0784c0.0312,-1.194 -0.5048,-4.7337 0.3879,-5.3626c0.5523,1.2912 0.4504,4.8084 0.0017,6.5385c0.7558,-0.5905 0.5836,0.6898 0.6548,-1.0833l0.0165,-5.6448l1.9115,-0.9371c-0.2906,-1.5823 -0.4954,-2.1384 -1.6086,-3.1563l0.0936,-1.4017c-0.3707,-0.7161 -0.5073,-0.8087 -0.4609,-1.8991c0.0758,-1.7805 -0.2071,-0.5243 0.7538,-1.7415c-1.0595,-0.6805 -0.8525,-1.153 -1.717,-0.734l-0.6569,2.1089c0.4665,0.8563 0.613,0.9204 1.1461,1.4111l-0.7263,0.0619c-0.2943,-0.0056 -0.2,0.0338 -0.2147,-0.0373c-0.006,-0.0288 -0.0546,-0.035 -0.0807,-0.0246c0.0715,3.8807 -0.0006,7.5064 0.0297,11.4328l-14.3586,-0.0278c0.0788,-4.4398 0.3115,-11.3756 -0.5307,-14.9929c-0.3737,-0.1093 -0.481,-0.3407 -1.0641,0.2148c-1.5299,1.4575 -0.3149,0.7132 -0.1836,1.259c0.0511,0.2123 0.9529,0.0831 -0.2367,2.7848z" class="fil3" id="_386858864"/>
    <path stroke="null" d="m104.110588,44.355411c0.4114,0.7345 -0.5485,1.9694 -1.3039,3.2746c-1.1222,1.9391 -0.8576,2.1941 0.2123,3.8943c1.1367,1.8062 2.813,5.562 4.395,6.5689l1.5773,-1.7972c0.9602,-1.12 1.0114,-0.7132 1.6917,-2.1115c-2.1386,-0.3123 -1.914,-0.4511 -3.651,-1.0594c0.3021,1.5663 0.7947,0.9707 1.2949,1.1688l0.6546,0.3438l-1.1692,0.2176c-1.223,-0.1627 -1.5952,-0.9994 -1.2584,-2.2141c-2.7027,0.0106 -1.7384,0.0711 -2.5996,-1.9979c0.6962,-1.5825 0.8539,0.3629 0.9702,-2.0748c0.0642,-1.3457 -0.0699,-1.5503 0.9991,-2.7262c1.5319,-1.685 3.1378,-1.5488 5.1504,-0.8814l0.8391,0.2829c0.6612,-1.1661 0.0688,-0.8417 1.0584,-1.554l1.566,1.2433c0.0404,0.0474 0.1073,0.1274 0.1449,0.1783l0.2626,0.41c0.3353,0.6103 0.2667,0.1838 0.4017,1.0024c-1.3408,0.7029 -0.7452,-0.0643 -1.655,0.959c1.1608,1.3878 0.4613,1.5203 1.0514,3.2665c0.3989,-1.4345 1.851,-1.951 3.2115,-3.5199c-0.7488,-2.6845 -2.1739,-4.1848 -3.0641,-5.8446c-0.0619,0.1008 -0.0958,0.1525 -0.128,0.331c-0.0553,0.3065 -0.9495,2.3824 -2.1372,1.0319c-0.6589,-0.7493 0.0714,-2.3746 0.1935,-3.4077c-1.3418,-0.8554 -1.7781,-1.3911 -2.5762,-2.9792c0.1077,2.8085 0.1883,1.3785 -0.3818,3.5875c-0.425,1.647 0.317,2.4112 -1.1227,3.5937c-4.8007,-0.4943 3.7778,-3.9382 0.5278,-7.55c-1.237,0.8367 -1.9845,2.6806 -2.7801,4.0609c-0.7958,1.3807 -1.628,2.876 -2.3752,4.3025z" class="fil5" id="_386859296"/>
    <path stroke="null" d="m88.876588,88.636411l3.8031,-0.0058c-0.6055,0.955 0.0707,0.1397 -0.6187,0.8078c-2.6985,2.6148 -1.5244,1.9306 -3.194,2.0331l0.0096,-2.8351zm-2.7914,-2.1069c1.2014,0.7961 1.3519,0.5288 2.0141,2.1324l0.2066,2.4409l-1.2164,0.1247c-1.1497,2.4862 -0.4848,3.4822 -0.0999,6.0962c-0.6685,0.4721 0.831,0.3947 -0.9375,0.4858l2.3201,-0.0697c-0.0027,2.3098 -0.7211,6.5452 0.2575,7.6337c1.1715,-0.6936 0.2615,-4.6022 0.2562,-7.3442c0.8815,-0.6855 0.5109,-0.3067 1.1567,-0.5928c1.19,-2.5105 0.0205,-3.6772 0.7055,-6.1083c1.31,0.9754 0.4656,-0.0892 0.9148,1.1408c0.0869,0.2379 0.0722,1.0624 0.0816,1.3453c0.5037,-0.4584 4.0983,-3.5487 5.0773,-3.9927c0.0954,-0.0432 0.2279,-0.0945 0.308,-0.1293c0.0822,-0.0358 0.2197,-0.0706 0.3176,-0.1297l-0.6546,-1.4094l-0.3886,0.2495c-1.8976,0.4272 -0.9445,-0.378 -3.2196,0.1096c-1.3997,0.3 -2.5712,0.1968 -4.0206,0.2046c0.6372,-1.7654 0.6697,-1.3369 2.0394,-2.186c-0.3095,-1.7085 -0.1777,-1.9794 -0.0485,-3.5578c0.0681,-0.8317 -0.1137,-1.7913 -0.0354,-1.8789c-0.455,-0.1885 -0.457,-0.3461 -0.3731,-0.7232c-1.1571,-0.8409 -1.9275,-1.7994 -3.5639,-0.3309c-2.152,1.9314 -0.1187,3.4 -1.0973,6.4894z" class="fil8" id="_386859656"/>
    <path stroke="null" d="m102.626588,80.319411c1.4388,0.3493 5.9393,1.4151 6.8183,2.325c-0.4943,0.8745 -0.2355,0.7768 -1.1213,1.3525c-1.3263,0.267 -4.1421,-2.5841 -5.0113,-1.8528c1.0442,1.7928 2.1348,1.6697 4.0432,2.8319c-0.2588,0.2972 -0.1175,0.1777 -0.5584,0.5303c-0.006,0.0048 -0.5558,0.4045 -0.6189,0.4449c-1.0967,0.7013 -4.0042,1.918 -5.2017,2.2236l-1.8059,-1.7203c1.1131,-0.7508 1.039,-0.2126 1.5685,-1.1991c-0.1372,-0.2426 0.0192,-1.1954 -1.4824,-0.5884c-1.3442,0.5433 -0.5888,1.4577 -0.9288,1.0062c-0.0512,-0.068 -0.1212,0.2371 -0.1736,0.3594l-0.5794,-0.9879c-0.092,-0.0897 -0.1472,-0.1631 -0.2515,-0.2345c-0.2519,-0.1725 -0.5907,-0.2875 -0.9189,-0.2445c-1.5765,0.2069 -0.875,1.6044 -1.2579,1.106c-0.0515,-0.067 -0.1151,0.239 -0.1673,0.3609c-0.5866,-1.3685 -0.5985,-1.2464 -1.4111,-1.4076c-0.3404,0.2646 -0.9929,1.3844 -2.1149,0.7038c0.0494,-0.1044 0.1975,-0.1636 0.2657,-0.2223c0.0658,-0.0566 0.1812,-0.1428 0.2577,-0.2121c0.0719,-0.0652 0.1695,-0.1283 0.2418,-0.1998c1.0738,-1.0607 1.0124,1.2169 0.6459,-1.128c0.6177,0.4048 0.8829,0.8612 1.8537,1.1477c0.0493,0.0145 1.6129,0.1594 1.7529,0.1745c-0.9206,-2.1609 -1.046,-0.2395 -1.4325,-1.2826c-0.0427,-0.1151 -0.1911,-0.0095 -0.2798,-0.0413l0.6261,-0.4324c0.2661,-0.2396 0.5995,-0.604 0.3001,-0.977l-0.67,0.2785c-0.4567,0.1037 -0.6459,0.0616 -1.0939,0.0708l-0.1726,-2.8187c-0.7499,0.7776 -0.48,0.4992 -1.4561,0.9733l-1.1732,0.4343c-0.0783,0.0876 0.1035,1.0472 0.0354,1.8789c-0.1292,1.5784 -0.261,1.8493 0.0485,3.5578l4.1521,-0.1217l1.0487,1.9935l0.3886,-0.2495l0.3022,0.1601l-0.7896,-1.9465c1.7455,0.0297 1.5021,-0.054 2.4431,0.8386c0.6775,0.6427 0.9376,0.8134 1.4259,1.5703l0.4903,1.4973c0.0686,0.0433 0.1679,0.045 0.1935,0.1476c0.0372,0.1485 0.3054,0.2614 0.3675,0.31c0.7103,0.5558 0.082,0.2428 0.7129,0.4602c3.9438,-0.7793 13.4681,0.2839 11.7383,1.7984l1.1654,0.2231c-0.7746,-2.9104 -3.3107,-2.8072 -6.4397,-3.0237l2.6503,-1.5557c0.4909,-0.9248 0.6687,-0.6819 0.8335,-1.6312c0.1666,-0.9594 0.2659,-0.5508 -0.2574,-1.256c-0.964,0.8854 -0.7973,1.1576 -1.5668,1.9806c-2.4105,2.5778 -6.2798,2.9925 -8.1919,2.0013c0.825,-1.4723 5.9725,-2.6684 8.7111,-5.9698c-0.5097,-2.5391 -0.6551,-2.4658 -3.1679,-3.097c-1.7259,-0.4335 -3.0029,-0.6457 -4.646,-1.4896l-0.2343,0.3619l0.0938,0.7868z" class="fil3" id="_386859776"/>
    <path stroke="null" d="m76.086388,51.920411l1.4806,2.9553l-1.7056,0.039l-0.3459,9.1854l6.4112,-0.1163c1.411,-0.3264 -0.7761,-2.77 1.0585,-6.5107c0.0393,0.0554 0.0548,0.1044 0.0625,0.194c0.0075,0.0874 0.0507,0.1599 0.0617,0.1888c0.0013,0.0037 0.1842,0.999 1.2604,1.4267c0.4131,0.1642 0.0669,1.5328 0.9624,-0.1281c0.3489,-0.6471 -0.0599,-1.0341 -0.153,-1.8227c-0.8571,1.1504 -0.248,1.9663 -1.0841,1.215c-0.9619,-0.8644 0.61,-1.6581 1.4419,-1.5397c2.3237,0.3307 0.3831,-0.2135 2.0362,1.0593c0.207,-0.5557 0.1264,-0.7358 0.269,-1.2172c0.2403,-0.811 -0.0241,0.0897 0.2514,-0.7257l0.2107,-0.6256c0.03,-0.09 0.0878,-0.2243 0.1092,-0.3421c-1.4055,0 -7.1166,0.376 -8.2249,-0.2865l-1.084,0.0415c-1.4546,-0.5896 -1.8306,-2.5991 -2.7907,-3.6958c-0.4852,0.267 -0.3983,-0.5258 -0.2275,0.7054z" class="fil9" id="_386864336"/>
    <path stroke="null" d="m96.765588,54.895411c-1.8132,0.8549 -5.6969,0.2852 -7.9474,0.2329l0.821,2.9841c0.2512,-0.2003 0.9064,-0.8999 0.9425,-0.9179c1.0776,-0.5358 -0.3907,0.0637 0.4125,-0.0578c0.0285,-0.0043 0.1266,-0.0027 0.1573,-0.0074c0.0339,-0.0051 0.1355,-0.0189 0.1719,-0.0252c0.1883,-0.0325 1.1761,-1.0706 1.8706,0.6453c0.3753,0.9273 0.2525,0.328 0.0213,0.7547c-0.7459,0.6069 -0.4987,-0.2898 -1.1863,-1.1727c-0.0143,0.1166 -0.1451,0.5981 -0.1527,0.6863c-0.0497,0.5807 -0.4015,-0.5403 -0.0361,0.8991c0.4844,1.9082 0.6261,0.529 1.0419,0.3684c0.0014,-0.0005 0.9395,-0.7081 0.9519,-0.7241c0.4424,-0.5729 0.0498,-0.0441 0.2441,-0.5029l0.1955,-0.5602c1.3522,2.8039 0.7951,3.8801 -0.0988,6.4102l7.6232,0.1229c-0.6079,-3.018 0.1804,-6.2486 -0.467,-9.1055l-1.4669,-0.2835l1.0322,-2.3644l-0.3101,-0.418l-1.8483,3.0103l-1.9723,0.0254z" class="fil9" id="_386860160"/>
    <path stroke="null" d="m85.158588,75.575411c-0.2994,0.1976 0.1502,0.3082 -0.7715,0.2587c-1.2619,-0.0677 0.2185,0.2662 -0.4701,-0.118c-0.3748,-0.2091 -0.6465,-0.4488 -0.7647,-0.984c-0.0399,-0.1808 -0.1,-0.2258 -0.1667,-0.3291c-1.6388,0.7093 1.3329,-1.1401 -0.5485,0.414l-0.4634,0.404c-0.5874,0.5164 0.8113,-0.0572 -0.752,0.6832l-1.0584,-1.5012c-1.0438,0.5179 -0.4129,1.1672 -1.5829,1.4124c-1.8581,0.3896 -0.6922,0.3731 -1.249,-1.3743l-1.0836,0.1898c-0.3125,2.3616 -0.4563,-0.3488 -0.6853,2.4363c6.3396,0.3294 16.1867,-0.0088 23.3248,0.0692c1.4889,0.0162 2.1817,0.377 2.5474,-0.6285l-0.4693,-1.7254l-1.0465,-0.2697c-0.5131,1.3383 0.3262,0.4299 -0.588,1.1331c-1.0239,0.7876 -1.689,-0.9862 -1.6892,-0.9873c-0.0362,-0.1529 -0.1075,-0.1909 -0.1923,-0.2556c-1.824,1.5712 1.6563,-1.3323 -0.7815,1.062c-0.32,0.3144 0.6013,0.3233 -0.6231,0.4194c-0.9911,0.0778 -0.9888,-0.8573 -1.4158,-1.8425c1.5081,1.3018 0.3167,1.2267 1.5555,1.2453c0.8878,0.0133 0.4184,0.0036 0.6423,-0.9048l-3.4012,-0.1149c-1.1694,0.732 -0.0552,1.4966 -1.3952,0.2459c-0.8773,-0.8189 -0.2877,-4.6634 -0.1145,-5.7603l1.2016,2.4051c0.0505,-3.362 0.1709,-1.534 -0.9777,-3.1189c-0.751,-1.0365 0.1054,-1.2632 -0.6069,-2.7636c-0.4598,3.2979 0.3398,6.8357 -0.1067,8.6884c-0.1704,0.7072 0.0235,0.2018 -0.297,0.7648c-0.0522,0.0916 -0.2289,0.3305 -0.2918,0.4029c-0.5016,0.578 0.058,0.2981 -0.7963,0.5794c-1.5562,-1.6188 -1.2703,-5.0373 -0.8199,-6.4755c0.0006,-0.0021 1.304,-2.3416 -0.3378,-2.761c-0.9188,-0.2346 -1.2338,0.5966 -1.1461,1.4678c0.2293,2.2777 1.7366,0.6592 0.1871,7.6822c-1.5354,0.1011 -1.6313,-0.5531 -1.8315,-1.601c-0.4886,-2.5561 0.6474,-6.8424 -0.2851,-8.6536c-0.9117,2.4634 1.1017,1.8107 -1.5853,3.1757l0.0839,2.4336l1.2337,-1.9632c0.6888,4.7964 -0.2473,4.6726 -0.3815,6.5592z" class="fil10" id="_386859584"/>
    <path stroke="null" d="m79.975388,51.357411l0.1184,-0.8718c2.3933,0.9107 2.2767,-0.1516 3.9497,-0.9327c1.4289,0.5735 1.7976,1.2238 3.1795,0.5096c-0.4306,-5.7211 -0.6724,-2.697 -1.3096,-4.6525l-0.0113,-0.7529c-1.2005,-0.05 -3.044,-1.056 -4.845,-1.0948c-4.5199,-0.0974 -6.0793,3.9653 -3.4937,6.6717c0.071,0.0743 0.2916,0.2767 0.3715,0.3379c1.3808,1.0579 0.7722,0.0895 2.0405,0.7855z" class="fil11" id="_386863496"/>
    <path stroke="null" d="m87.222588,50.062411c-1.3819,0.7142 -1.7506,0.0639 -3.1795,-0.5096c-1.673,0.7811 -1.5564,1.8434 -3.9497,0.9327l-0.1184,0.8718l0.448,3.0469c4.5294,0.0897 6.0254,-2.2459 15.6145,0.0958l0.0648,-0.2549c0.0107,-0.0497 0.0583,-0.2695 0.0743,-0.3498c0.1043,-0.5237 0.211,-1.5291 0.6092,-1.9683c0.0388,-0.0428 0.1359,-0.1159 0.1761,-0.1531l0.4416,-0.3097l-0.1347,-0.1602c-0.1334,-0.9275 0.1994,-0.5087 -0.3717,-0.5489c-3.1073,0.4482 -1.3879,-0.5786 -3.1348,-1.0546c-1.4084,-0.3838 -1.675,1.1473 -3.7238,0.3466c-1.5543,-0.413 -1.2346,-0.5321 -2.8159,0.0153z" class="fil12" id="_386863784"/>
    <path stroke="null" d="m116.257588,60.987411c1.198,-0.2515 0.7424,-0.2047 1.6526,-0.6801c0.4127,0.5029 0.9877,0.6887 1.4824,1.0329c-0.9281,0.2822 -0.4731,0.1407 -1.0967,0.7248c-0.677,0.6342 -0.151,0.5036 -1.0912,0.7339l-0.9471,-1.8115zm1.7187,-4.264c0.4824,-0.1386 0.6976,-0.1788 1.1792,-0.4036c0.2906,1.5994 0.4824,1.9701 1.7665,2.4212c-0.7254,0.5383 -0.908,0.5176 -1.2479,1.4347c-2.2865,-0.9343 -1.7157,-0.0535 -3.329,-0.5994c0.3229,-0.2898 0.0396,-0.1647 0.6893,-0.4866l0.5445,-0.1975c0.7101,-0.2756 0.2387,0.0708 1.032,-0.3951l-0.6346,-1.7737zm0,0l-1.3821,0.3834c0.1301,1.9336 0.7307,0.3045 1.2015,1.1488l-3.1208,0.9023c-0.7081,-0.5149 -0.4703,-0.6519 -1.1441,-1.6218c0.296,2.6742 0.8909,1.3776 2.6619,2.2448c-0.6711,1.3691 -1.4305,1.3854 -0.1498,2.9893c0.6808,0.8527 0.1361,-0.5011 0.3241,0.4204l-2.6367,-0.9061c0.0265,-0.1251 0.0711,-0.2658 0.1151,-0.3659c0.0424,-0.0962 0.0731,-0.2333 0.1293,-0.3453l-0.7393,-0.3783c-0.3827,-2.2523 -0.8403,-2.9629 0.7585,-4.1009l0.3956,-0.2632c1.7308,-1.1352 2.1008,-1.3037 3.5868,-0.1075zm3.5253,-1.5105c-0.4238,1.437 -0.0361,0.2991 -0.7691,1.021c-0.9635,-0.6349 -0.246,0.4166 -0.5481,-0.9534l-0.4362,0.83c-2.1082,-0.9861 -3.6632,-2.7422 -6.1312,-0.9118c-3.2698,2.4249 -1.1061,4.4902 -2.0568,5.7379l-0.2663,-0.2849c-0.3907,-1.0259 0.1421,-1.2148 -0.4392,-1.961c-0.3451,0.5127 -0.1983,0.0878 -0.372,0.9092c-0.0236,0.1116 -0.1456,1.5265 -0.1576,1.6495l2.0378,0.5353c-0.7786,3.7345 1.6852,2.1073 4.8418,2.9849c0.0905,-0.0512 0.2144,-0.2482 0.2591,-0.1736c0.4146,0.6925 -0.1591,0.0195 1.1872,-0.7626c0.3141,-0.1825 1.4146,-0.7756 1.5518,-0.9077c1.022,-0.9843 0.8788,-2.7572 0.6421,-4.055l0.9003,-0.3669c0.5334,-0.2077 0.2187,0.0852 1.006,-0.3831c-0.2645,-0.783 -0.4812,-0.9305 -0.6526,-1.3233c-0.0309,-0.071 -0.1102,-0.2676 -0.1404,-0.343c-0.0172,-0.0428 -0.0554,-0.1419 -0.0728,-0.1867l-0.3838,-1.0548z" class="fil13" id="_386865248"/>
    <path stroke="null" d="m58.432788,55.693411c0.8424,0.2258 0.1531,-0.0062 0.5617,0.5804c1.0153,0.1536 0.9729,-0.2124 2.3225,-0.02c0.0046,0.0006 0.7268,0.1533 0.8369,0.1852c2.7862,0.8071 2.7777,3.3648 1.5673,5.1415c-0.8661,1.2713 -1.0895,1.5441 -3.111,1.6536l0.4612,-0.4444c1.3609,-2.1875 -0.4026,-2.6994 -0.4528,-2.7472c0.8406,-0.7202 -1.011,-0.0021 1.2362,-0.3045c0.9232,-0.1242 0.5376,0.0895 1.44,-0.3451c-0.223,-1.6032 0.3119,-0.7013 -0.7707,-1.533c-2.1919,0.9336 0.9974,1.3754 -0.9312,1.1731c-2.1563,-0.2262 -2.3572,-0.9481 -2.9153,-1.1923c-0.1251,1.2538 0.0257,2.1128 1.8231,3.3794l-0.7989,1.5441c-0.7431,-0.5629 -1.3649,-0.6576 -1.7844,-1.4656c-0.832,-1.6026 0.4497,-1.6167 -1.1365,-2.0618l-0.4395,-0.0417c-0.1722,2.7413 1.107,4.613 3.2032,5.1712c1.6157,0.4302 1.4692,-0.2926 2.961,-0.1825c0.8943,0.066 0.4598,0.1958 1.4096,0.595c1.8463,-1.6621 2.0456,-1.4578 1.0233,-3.1701c1.3212,-0.0145 0.9305,0.1817 1.8748,-0.487c-0.0346,-0.4767 -0.002,-0.6814 -0.0802,-1.1835l-0.2271,-1.0193c-0.0219,-0.0881 -0.0604,-0.2105 -0.1014,-0.3118l-0.1906,0.5852c-0.3384,1.7955 0.7872,0.7462 -0.5149,1.6574l-0.0807,-1.178c0.0217,-0.4166 0.4828,-1.4016 -0.6783,-3.1862c-0.8361,-1.285 0.2666,-0.2229 -1.1517,-1.0201c-2.568,-1.4434 -3.2616,-1.2491 -5.3556,0.228z" class="fil14" id="_386860928"/>
    <path stroke="null" d="m90.038588,50.047411c2.0488,0.8007 2.3154,-0.7304 3.7238,-0.3466c1.7469,0.476 0.0275,1.5028 3.1348,1.0546c0.7028,-1.132 0.0837,-0.0506 1.1231,-1.1756c0.2882,-0.312 0.6513,-0.6951 0.8106,-1.3712c1.2262,-5.2045 -7.0993,-2.2378 -8.2169,-2.1402l-0.5754,3.979z" class="fil11" id="_386861120"/>
    <path stroke="null" d="m113.691588,47.482411c-0.9192,-0.5238 -0.7075,-0.4525 -1.3249,-1.0773c-1.0931,-1.1062 0.0061,-0.8954 -1.3107,-0.783c-0.6197,1.9032 -0.7763,-0.5559 1.6224,3.0778c-0.97,-0.7191 -0.7616,-0.9049 -1.2878,-1.3641c-1.0973,-0.9575 -0.2563,-0.4883 -1.4866,0.0706c-0.671,-1.5449 0.6681,-0.0545 -0.4604,-1.5594c-1.8404,-0.1556 -0.3971,-0.5176 -2.1088,1.0635c-0.0563,0.0519 -0.1342,0.119 -0.19,0.1711c-0.6538,0.6096 0.1365,-0.4763 -0.7333,0.7118c-0.0447,0.061 -0.1097,0.144 -0.1478,0.2091c-0.5515,0.9441 -0.4368,0.8499 -0.1298,1.7715c0.4197,1.2597 0.5634,0.5698 0.8422,2.1118c1.2193,-0.4336 0.4587,-0.1446 1.5662,-0.9038l-0.6459,1.4247c4.4778,1.0542 2.4929,0.4199 3.0302,-0.0676c-2.9436,-0.6612 -0.7147,-3.1243 0.7538,-4.0549c-0.6434,1.7205 -0.8042,0.9428 -1.4586,2.4725l1.653,1.3695c0.0472,0.0373 0.1531,0.1225 0.2431,0.1579c0.2125,-1.2124 0.7385,-1.7671 0.9096,-2.3262c0.3109,-1.0162 -0.2548,-1.1978 0.6641,-2.4755z" class="fil15" id="_386860904"/>
    <path stroke="null" d="m68.813488,49.698411c2.3782,-1.0772 0.8569,1.383 0.2733,2.1436l-1.4337,-0.0119c-2.6906,-4.2726 -2.3925,-2.0648 -2.1784,-4.501c0.0808,0.098 0.165,0.2195 0.2218,0.3099l0.7081,1.4125c2.2558,-0.6926 -0.2182,-0.8226 2.0558,-0.7034c0.0576,1.899 -0.456,0.2916 -0.9065,2.1333c0.9349,0.6923 1.278,0.8281 1.868,-0.4302c-0.8972,-0.1278 -0.3284,0.3877 -0.6084,-0.3528zm-5.2311,-2.1167c1.3636,1.5875 -0.3361,1.9467 1.368,3.9268c0.0514,0.0597 0.1249,0.1307 0.1782,0.1876c2.2072,2.3528 4.319,0.9774 5.2866,-0.4573c1.9942,-2.957 -0.5765,-4.7529 -2.2596,-5.2464c-1.2185,-0.3572 -0.9146,0.4068 -2.5714,-0.6949c-0.3636,1.4478 -0.7239,1.5914 -2.0018,2.2842z" class="fil5" id="_386861408"/>
    <path stroke="null" d="m100.662588,97.501411c0.9362,2.5113 1.0088,-0.3811 2.2362,2.5581c0.3628,0.8688 1.2353,3.6209 2.4535,3.7383c1.4241,-1.4319 -1.4913,-3.3588 -2.2762,-5.4161c1.3213,-1.2279 3.213,-1.5477 5.3088,-1.5703c1.2438,0.4076 3.5984,5.0355 5.8338,4.9346c0.3791,-2.1863 -3.0186,-3.189 -4.1042,-4.8202c1.1367,-0.0077 2.5012,0.1621 3.579,0.0606c1.6593,-0.1562 1.8555,-0.3194 1.7121,-1.6817c-4.0779,1.3362 -3.8642,0.2913 -7.7439,0.4541c-2.3961,0.1005 -4.1963,1.4363 -6.9991,1.7426z" class="fil13" id="_386861576"/>
    <path stroke="null" d="m76.448688,97.587411c-2.3258,-0.4387 -4.8779,-1.7141 -6.8521,-1.8282c-3.4551,-0.1995 -4.6362,1.0852 -7.8793,-0.4823l0.0404,1.303c1.8721,0.6805 3.1739,0.3987 5.1952,0.2836c-0.7094,1.4326 -0.8479,0.6915 -2.3172,2.2172c-0.7409,0.7693 -1.415,1.3326 -1.9941,2.0579l0.6365,0.7049c1.0691,-0.3124 1.6124,-0.9642 2.3266,-1.7882l0.8889,-1.2306c1.179,-1.7863 1.8572,-2.3602 4.4474,-1.849c0.577,0.1139 1.1507,0.2847 1.643,0.5098c0.2411,0.1102 0.4851,0.2479 0.7092,0.3894c0.8313,0.5254 0.2732,0.178 0.6897,0.5071c-0.4902,1.184 -0.2245,0.4811 -1.067,1.5999c-0.6244,0.8291 -1.6252,2.5951 -1.7511,3.4963l0.865,0.4243c2.239,-2.422 1.6473,-4.1165 3.1738,-5.2111c0.9156,-0.6566 0.6124,0.039 1.2451,-1.104z" class="fil13" id="_386861672"/>
    <path stroke="null" d="m61.717288,95.276411c3.2431,1.5675 4.4242,0.2828 7.8793,0.4823c1.9742,0.1141 4.5263,1.3895 6.8521,1.8282l1.306,-2.1136c-3.6562,-0.1972 -4.1113,-0.6789 -7.3042,-1.4723c-3.3084,-0.8221 -6.4474,0.4302 -8.3538,-0.3234l-0.3794,1.5988z" class="fil5" id="_386865872"/>
    <path stroke="null" d="m89.036588,14.865411l-0.5362,1.3093l-0.4692,-1.198l1.0054,-0.1113zm-1.3351,-0.0786c-0.7617,0.2165 -0.6209,0.1407 -1.2637,0.6637l0.4978,0.3539c0.5833,0.5872 0.1745,-0.2674 0.5123,0.5791c0.3091,0.7748 0.2167,0.295 -0.1754,1.2878l-1.7345,-2.2953c-0.0549,-0.0563 -0.1302,-0.1321 -0.1857,-0.186l-0.4141,-0.3692c-0.0477,-0.0428 -0.1409,-0.1301 -0.2199,-0.184c-0.1068,1.0121 -0.8089,3.7197 0.3895,4.0188c1.8905,0 0.5213,-0.1331 1.0503,0.5563c0.5824,-0.0221 0.4328,-0.009 1.186,-0.3639c-0.6233,1.2877 -0.7121,0.5707 -0.5818,1.6215c0.8459,-0.0938 -0.1183,0.2527 0.6403,-0.3021c0.0646,-0.0472 0.1921,-0.1553 0.2503,-0.2002c0.0652,-0.0504 0.1781,-0.1602 0.2708,-0.2359c0.2815,0.3562 0.4969,0.4039 0.7056,1.1469c0.0057,-2.3666 -0.1305,-0.2206 0.7056,-1.1643c0.0757,0.0829 0.173,0.1224 0.2104,0.2629c0.033,0.1243 0.1594,0.1895 0.2039,0.2172c0.457,0.2851 -0.0787,0.339 0.722,0.1632c-0.2697,-1.2724 -0.0955,-0.2812 -0.2779,-0.7491c-0.3376,-0.8661 -0.1238,0.3373 -0.3016,-0.7614c1.4064,0.7146 1.9688,0.5728 2.5635,-0.8916l-0.1679,-2.5788c-0.7086,-0.0509 0.4585,-0.5645 -0.3947,0.1555c-0.0793,0.0669 -0.291,0.4813 -0.3221,0.3998c-0.0275,-0.0722 -0.1108,0.1719 -0.1607,0.3467l-0.6662,0.0975l-0.8214,1.2807c-0.3075,-0.5908 -0.513,-0.7493 -0.3649,-1.5098l0.8635,-0.5756l-0.4566,-1.2061c-0.4033,0.3893 -0.2619,0.3131 -0.9276,0.5004c0.1832,-2.1574 0.1004,-0.664 -0.4073,-1.2774l-0.8003,0.9911c-0.0272,0.0394 -0.0783,0.143 -0.1275,0.2077z" class="fil13" id="_386861984"/>
    <path stroke="null" d="m58.994488,56.273411c-1.1462,0.6152 -0.2863,-0.1198 -0.975,0.907c-0.0661,0.0986 -0.281,0.6713 -0.3268,0.7548c-0.5801,1.0578 -0.3464,0.3725 -0.9118,1.3012c1.5862,0.4451 0.3045,0.4592 1.1365,2.0618c0.4195,0.808 1.0413,0.9027 1.7844,1.4656l0.7989,-1.5441c-1.7974,-1.2666 -1.9482,-2.1256 -1.8231,-3.3794c0.5581,0.2442 0.759,0.9661 2.9153,1.1923c1.9286,0.2023 -1.2607,-0.2395 0.9312,-1.1731c1.0826,0.8317 0.5477,-0.0702 0.7707,1.533c-0.9024,0.4346 -0.5168,0.2209 -1.44,0.3451c-2.2472,0.3024 -0.3956,-0.4157 -1.2362,0.3045c0.0502,0.0478 1.8137,0.5597 0.4528,2.7472l-0.4612,0.4444c2.0215,-0.1095 2.2449,-0.3823 3.111,-1.6536c1.2104,-1.7767 1.2189,-4.3344 -1.5673,-5.1415c-0.1101,-0.0319 -0.8323,-0.1846 -0.8369,-0.1852c-1.3496,-0.1924 -1.3072,0.1736 -2.3225,0.02z" class="fil5" id="_386862080"/>
    <path stroke="null" d="m99.291588,95.399411l1.3714,2.1025c2.8028,-0.3063 4.603,-1.6421 6.9991,-1.7426c3.8797,-0.1628 3.666,0.8821 7.7439,-0.4541l-0.6035,-1.928c-1.1662,1.4236 -2.2698,0.6776 -3.9473,0.4102c-1.48,-0.2359 -3.157,0.0928 -4.3159,0.4019c-2.9372,0.7836 -3.8093,1.7181 -7.2477,1.2101z" class="fil5" id="_386862488"/>
    <path stroke="null" d="m74.609788,80.083411c-0.1836,0.5376 -0.1628,0.5656 -0.4215,1.0481c-0.2668,0.4976 -0.199,0.3322 -0.4677,0.6333c-0.4118,2.1 -2.5831,2.1447 -4.0197,3.2114c1.4907,1.451 4.1396,2.6595 6.6658,3.2644c0.5632,-0.7919 0.8214,-0.8201 1.5276,-1.8533c-0.9118,-0.7603 -0.8041,-0.0793 -1.3786,-1.1232c-0.5744,-0.3558 -0.703,-0.0965 -1.1016,-1.1763c-0.1808,-0.4899 -0.1614,-1.0378 -0.1767,-1.5547c-0.0363,-1.2314 0.0028,-2.4972 0.1582,-3.6965l-0.6806,0l-0.1052,1.2468z" class="fil2" id="_386862392"/>
    <path stroke="null" d="m100.739588,85.255411c-0.5295,0.9865 -0.4554,0.4483 -1.5685,1.1991l1.8059,1.7203c1.1975,-0.3056 4.105,-1.5223 5.2017,-2.2236c0.0631,-0.0404 0.6129,-0.4401 0.6189,-0.4449c0.4409,-0.3526 0.2996,-0.2331 0.5584,-0.5303c-1.9084,-1.1622 -2.999,-1.0391 -4.0432,-2.8319l-0.6857,-1.8247l-0.0938,-0.7868l-0.6769,0c0.1368,1.1695 0.2371,2.481 0.1289,3.6794c-0.1404,1.5553 -0.3306,1.4737 -1.2457,2.0434z" class="fil2" id="_386862752"/>
    <path stroke="null" d="m111.628588,85.745411l-1.0476,-1.9879c-2.7386,3.3014 -7.8861,4.4975 -8.7111,5.9698c1.9121,0.9912 5.7814,0.5765 8.1919,-2.0013c0.7695,-0.823 0.6028,-1.0952 1.5668,-1.9806z" class="fil5" id="_386862896"/>
    <path stroke="null" d="m65.336688,85.908411c2.5767,1.2551 1.813,4.1534 7.0702,4.142c2.8027,-0.006 1.7171,0.8045 2.7249,-0.9232c-1.8244,-0.6467 -3.0297,-1.3413 -4.6342,-2.2289c-2.0342,-1.1252 -3.1865,-1.4206 -3.8809,-3.8057l-1.28,2.8158z" class="fil5" id="_386863040"/>
    <path stroke="null" d="m69.560688,64.615411c0.3104,2.1955 2.5822,7.8437 3.64,10.025c0.592,1.2207 0.0451,0.4445 0.7672,1.1358c-0.4748,-2.9305 -1.1825,-5.6752 -2.003,-8.4416c-0.7199,-2.4274 -1.9699,-7.5813 1.2811,-8.2307c-1.5344,-1.0852 -0.6718,0.1469 -0.8136,-1.2858c-3.7484,2.0915 -1.4199,3.6942 -2.8717,6.7973z" class="fil5" id="_386863472"/>
    <path stroke="null" d="m93.314588,34.770411c-0.1465,-1.0868 0.4303,-4.0272 -3.0707,-4.8214c0.1635,1.01 0.4175,0.9345 0.6278,1.281c0.3605,0.5942 -0.7945,-0.8866 0.17,0.3706l0.227,0.2725c0.0283,0.0241 0.8751,0.4656 0.9408,0.4993c-0.5055,0.2879 -0.7363,-0.2097 -0.446,1.0718c0.3235,1.4279 -0.0311,-0.0075 0.318,0.6861c0.2389,0.4746 0.1862,0.0192 0.3514,0.6007c-0.9188,0.5335 -0.2714,1.0132 -1.5332,2.0867l-3.3691,0.884l-1.0181,1.4148c-1.2014,-0.9184 0.2621,-0.7304 -1.8612,-1.4389c-0.2945,2.109 -0.2566,1.5391 1.0318,1.9593c1.3207,0.4307 0.2923,0.3035 1.6854,0.2121c0.5751,-0.7821 0.3952,-1.0571 1.2607,-1.5797c1.1985,0.5069 0.6771,0.6926 2.1167,1.7985c1.391,-0.4466 1.9848,-0.5374 2.0514,-1.8814c-0.1422,-0.04 -0.5203,-0.3422 -1.4006,0.2055c-0.1464,0.0911 -0.3908,0.6126 -0.426,0.7246c-1.7121,-0.8541 -0.4147,-1.0419 0.5785,-1.6184c0.9765,-0.5668 0.7125,-0.2624 1.6276,-1.239l0.3895,-0.4473c-0.3558,-1.1674 -0.147,-0.2644 -0.2517,-1.0414z" class="fil3" id="_386863616"/>
    <path stroke="null" d="m104.085588,59.158411c3.1427,0.2641 2.0412,5.5672 1.3667,7.9725c-0.8563,3.0534 -1.4751,5.4072 -2.1165,8.7162c0.7642,-0.8511 0.8889,-1.6098 1.3406,-2.6967c0.4056,-0.9758 0.8032,-1.8368 1.1937,-2.687c0.8245,-1.7948 1.4531,-3.5436 1.812,-5.6442c-0.4985,-1.1253 -0.0479,-2.8762 -0.4805,-4.369c-0.4352,-1.5019 -1.268,-2.0114 -2.3119,-2.8875c-0.0726,1.3094 0.6794,0.7453 -0.8041,1.5957z" class="fil5" id="_386863976"/>
    <path stroke="null" d="m76.247388,74.630411l1.0836,-0.1898c0.5568,1.7474 -0.6091,1.7639 1.249,1.3743c1.17,-0.2452 0.5391,-0.8945 1.5829,-1.4124l1.0584,1.5012c1.5633,-0.7404 0.1646,-0.1668 0.752,-0.6832l0.4634,-0.404c1.8814,-1.5541 -1.0903,0.2953 0.5485,-0.414c0.0667,0.1033 0.1268,0.1483 0.1667,0.3291c0.1182,0.5352 0.3899,0.7749 0.7647,0.984c0.6886,0.3842 -0.7918,0.0503 0.4701,0.118c0.9217,0.0495 0.4721,-0.0611 0.7715,-0.2587c-0.0543,-0.078 -0.1114,-0.1891 -0.1443,-0.246c-1.4944,-2.5815 -1.2775,-1.7296 -2.3815,-3.3042c-1.716,0.1586 -2.8359,-0.2427 -4.5861,0.2873c-0.3485,0.8866 -0.5711,1.4777 -1.7989,2.3184z" class="fil3" id="_386863808"/>
    <path stroke="null" d="m93.425588,74.267411l3.4012,0.1149c-0.2239,0.9084 0.2455,0.9181 -0.6423,0.9048c-1.2388,-0.0186 -0.0474,0.0565 -1.5555,-1.2453c0.427,0.9852 0.4247,1.9203 1.4158,1.8425c1.2244,-0.0961 0.3031,-0.105 0.6231,-0.4194c2.4378,-2.3943 -1.0425,0.5092 0.7815,-1.062c0.0848,0.0647 0.1561,0.1027 0.1923,0.2556c0.0002,0.0011 0.6653,1.7749 1.6892,0.9873c0.9142,-0.7032 0.0749,0.2052 0.588,-1.1331l1.0465,0.2697c-0.4842,-0.4731 -0.7543,-0.8637 -1.1163,-1.2922c-1.4303,-1.6924 -0.1893,0.0778 -1.3413,-1.565l-0.5791,0.3662c-0.0696,0.0571 -0.1789,0.1697 -0.2399,0.2231l-0.3841,0.5198c0.0233,-0.5435 1.6753,-1.515 -0.8435,-1.0238c-2.0837,0.4063 -0.635,-0.065 -0.6309,1.0238c-0.4373,-0.628 -0.5445,-0.7454 -1.2031,-1.0917c-0.0631,0.0911 -0.1543,0.1955 -0.2059,0.2611c-0.0499,0.0633 -0.147,0.1699 -0.2054,0.2471l-0.498,0.687c-0.4123,0.7878 -0.2094,-0.5012 -0.2923,1.1296z" class="fil3" id="_386864528"/>
    <path stroke="null" d="m117.976588,56.723411c-1.486,-1.1962 -1.856,-1.0277 -3.5868,0.1075l-0.3956,0.2632c-1.5988,1.138 -1.1412,1.8486 -0.7585,4.1009l0.7393,0.3783c-0.0562,0.112 -0.0869,0.2491 -0.1293,0.3453c-0.044,0.1001 -0.0886,0.2408 -0.1151,0.3659l2.6367,0.9061c-0.188,-0.9215 0.3567,0.4323 -0.3241,-0.4204c-1.2807,-1.6039 -0.5213,-1.6202 0.1498,-2.9893c-1.771,-0.8672 -2.3659,0.4294 -2.6619,-2.2448c0.6738,0.9699 0.436,1.1069 1.1441,1.6218l3.1208,-0.9023c-0.4708,-0.8443 -1.0714,0.7848 -1.2015,-1.1488l1.3821,-0.3834z" class="fil15" id="_386864288"/>
    <path stroke="null" d="m100.896588,52.277411l-1.0322,2.3644l1.4669,0.2835c0.6139,0.3223 0.7415,-0.4003 0.6997,2.5222c-0.0165,1.1482 -0.052,1.9823 0.0683,3.1396c0.9409,-1.1407 0.6614,-0.8768 1.9858,-1.4296c1.4835,-0.8504 0.7315,-0.2863 0.8041,-1.5957c-0.8054,-0.8718 -1.22,-1.9184 -1.8094,-2.9217c-0.3907,-0.665 -0.5525,-1.0555 -0.8638,-1.6374c-0.5428,-1.0148 -0.4873,-1.0918 -1.3194,-0.7253z" class="fil16" id="_386864384"/>
    <path stroke="null" d="m72.432388,57.817411c0.1418,1.4327 -0.7208,0.2006 0.8136,1.2858c0.7751,0.5117 1.3678,0.784 1.9595,1.2634c0.0777,-2.53 -0.3993,-4.5557 0.6559,-5.4524l1.7056,-0.039l-1.4806,-2.9553c-1.1094,0.8164 -2.8296,4.4916 -3.654,5.8975z" class="fil16" id="_386864624"/>
    <path stroke="null" d="m87.508588,42.069411c0.0577,-0.1014 0.1411,-0.3744 0.1698,-0.3058l0.5444,-0.8843l-7.1361,-0.0465l0.0042,-5.2452l-1.05,-0.1916l-0.0036,6.6108l7.4713,0.0626z" class="fil17" id="_386863856"/>
    <path stroke="null" d="m102.416588,75.455411c-0.3556,-3.3285 1.7524,-8.0029 2.2296,-11.4842c-2.5277,0.7467 -1.4075,-0.0678 -2.5511,0.0937c-0.1834,2.011 -0.0871,4.0682 -0.0903,6.0951c-0.0014,0.9394 -0.0334,1.9052 -0.0239,2.8377c0.0127,1.2624 -0.0586,1.5938 0.4357,2.4577z" class="fil16" id="_386864864"/>
    <path stroke="null" d="m74.927188,75.307411c0.6455,-1.5472 0.355,-9.0648 0.2559,-11.2785c-1.4143,-0.1071 0.0151,0.6699 -2.528,-0.08c0.4077,3.2944 2.568,8.2552 2.2721,11.3585z" class="fil18" id="_386862776"/>
    <path stroke="null" d="m80.458088,89.721411l4.839,4.2577l0.5897,-2.6526c-0.8364,-0.9038 -0.8336,-0.9285 -1.775,-1.4719c-0.0471,-0.0272 -1.1163,-0.6131 -1.1361,-0.6279c-0.853,-0.6363 -0.3301,-0.1669 -0.7631,-0.8229l-0.7184,0.2461l-1.0361,1.0715z" class="fil19" id="_386865320"/>
    <path stroke="null" d="m80.602288,88.564411l0.8919,0.0848l0.7184,-0.2461c1.1712,-0.3529 0.7082,-0.2312 1.9294,0.2327l3.9572,0.0254c-0.6622,-1.6036 -0.8127,-1.3363 -2.0141,-2.1324l-4.4178,-0.1027l-1.065,2.1383z" class="fil16" id="_386864768"/>
    <path stroke="null" d="m96.404588,88.402411l-1.0487,-1.9935l-4.1521,0.1217c-1.3697,0.8491 -1.4022,0.4206 -2.0394,2.186c1.4494,-0.0078 2.6209,0.0954 4.0206,-0.2046c2.2751,-0.4876 1.322,0.3176 3.2196,-0.1096z" class="fil2" id="_386865848"/>
    <path stroke="null" d="m89.898588,42.060411l6.8466,-0.0978c0.4487,-1.7301 0.5506,-5.2473 -0.0017,-6.5385c-0.8927,0.6289 -0.3567,4.1686 -0.3879,5.3626l-7.094,0.0784l0.637,1.1953z" class="fil12" id="_386862128"/>
    <path stroke="null" d="m78.227088,68.042411c0.212,0.9467 0.678,0.6377 0.5265,3.1733c1.6652,-0.2622 2.3644,-0.0045 3.8788,-0.5076c-0.4668,-4.592 0.4203,0.8679 0.1274,-3.0098c-3.0292,0.7545 -2.9647,-0.2574 -4.5327,0.3441z" class="fil20" id="_386865224"/>
    <path stroke="null" d="m82.182988,102.266411l1.9006,0.3461c0.0024,-0.0166 2.0554,-5.0545 1.7238,-6.7349c-1.5025,0.086 -1.6018,0.222 -2.1758,2.8176c-0.4369,1.9759 -1.0432,1.8418 -1.4486,3.5712z" class="fil5" id="_386860808"/>
    <path stroke="null" d="m94.645588,71.126411c0.1435,-0.0377 0.3389,-0.2951 0.4097,-0.1738c0.1301,0.2229 0.1331,-0.3862 1.0721,-0.2428c0.0352,0.0054 0.1235,0.0763 0.1592,0.0817l0.9043,-0.161c0.0302,-0.0011 0.1063,-0.029 0.1396,-0.0237c0.046,0.0074 0.1371,0.0376 0.1881,0.0547l0.9866,0.5547c-0.3323,-2.448 0.3928,-1.5671 0.2745,-3.4274l-3.0528,0.2646c-0.6955,-0.0543 0.1636,-0.053 -1.2497,-0.3568c0.0068,1.9845 0.6886,1.2653 0.1684,3.4298z" class="fil3" id="_386858840"/>
    <path stroke="null" d="m103.312588,82.144411c0.8692,-0.7313 3.685,2.1198 5.0113,1.8528c0.8858,-0.5757 0.627,-0.478 1.1213,-1.3525c-0.879,-0.9099 -5.3795,-1.9757 -6.8183,-2.325l0.6857,1.8247z" class="fil19" id="_386858936"/>
    <path stroke="null" d="m73.720588,81.764411c0.2687,-0.3011 0.2009,-0.1357 0.4677,-0.6333c0.2587,-0.4825 0.2379,-0.5105 0.4215,-1.0481c-1.8505,0.62 -5.3333,1.5948 -7.1339,2.3752c0.5581,0.588 1.1196,1.1114 1.4507,1.6335c1.0796,-0.5048 4.7011,-2.3357 4.794,-2.3273z" class="fil5" id="_386859872"/>
    <path stroke="null" d="m81.684788,95.357411c0.3709,-3.0205 0.392,-2.6275 -1.6092,-4.2302c0.0801,1.2175 0.5554,2.7267 0.3043,3.9074c-0.3795,1.7841 -1.0692,0.8968 -1.0039,3.4547c3.4265,-0.5207 2.0219,-0.7946 2.3088,-3.1319z" class="fil19" id="_386136832"/>
    <path stroke="null" d="m87.288588,35.948411c2.0691,-1.1409 0.3343,-0.5635 1.7935,-1.9134c0.4426,2.4256 0.285,0.2461 -0.3688,1.3836c-0.5515,0.9595 -0.2135,-0.8403 -0.3477,0.5808c-0.1379,1.4607 -0.0017,0.2321 0.2642,0.7622c0.9553,-0.3553 1.0485,-0.7036 1.7424,-1.174c-1.7076,-5.2216 0.4409,-4.1262 -3.1517,-4.5844l0.4518,0.7025c0.357,0.6682 0.3831,0.2969 0.1182,1.3956c-0.097,0.4021 -0.1552,0.7585 -0.2406,1.1339c-0.0123,0.0543 -0.257,0.8612 -0.2613,1.7132z" class="fil21" id="_386134408"/>
    <path stroke="null" d="m89.366588,22.102411c0.5744,1.1435 0.5014,0.5718 0.1009,1.6421c-1.0002,0.3375 -0.8182,0.4583 -1.8744,-0.152c-0.162,-1.443 -0.4376,-0.5398 0.374,-1.2909l-0.0748,-1.0153c-1.8899,0.472 -0.6701,-0.7304 -1.4409,1.3842l0.4214,2.0082l-1.5836,0.569l2.9676,-0.264l-0.0637,1.0413l0.7932,-0.0599l-0.1158,-1.009l0.9998,-0.1217l0.2775,-0.0339l0.3209,-0.7379l-0.0357,-2.9787c-0.6221,0.1834 -0.601,-0.0296 -1.1362,0.3954c-0.6402,0.5083 -0.8624,-0.0578 0.0698,0.6231z" class="fil22" id="_386135056"/>
    <path stroke="null" d="m86.451588,22.670411c0.7708,-2.1146 -0.449,-0.9122 1.4409,-1.3842l0.0748,1.0153c0.6401,0.6385 0.8725,0.2653 1.3995,-0.1992c-0.9322,-0.6809 -0.71,-0.1148 -0.0698,-0.6231c0.5352,-0.425 0.5141,-0.212 1.1362,-0.3954l0.0357,2.9787c0.5065,-1.1094 0.253,-1.3229 0.2021,-2.7932c1.987,-0.0897 1.2123,-0.0124 1.546,-1.117l-0.4987,-0.4152c-1.1983,0.4362 -0.4792,-0.5877 -0.8488,1.1081c-1.213,0 0.0147,0.1532 -0.3975,-0.4883c-0.8007,0.1758 -0.265,0.1219 -0.722,-0.1632c-0.0445,-0.0277 -0.1709,-0.0929 -0.2039,-0.2172c-0.0374,-0.1405 -0.1347,-0.18 -0.2104,-0.2629c-0.8361,0.9437 -0.6999,-1.2023 -0.7056,1.1643c-0.2087,-0.743 -0.4241,-0.7907 -0.7056,-1.1469c-0.0927,0.0757 -0.2056,0.1855 -0.2708,0.2359c-0.0582,0.0449 -0.1857,0.153 -0.2503,0.2002c-0.7586,0.5548 0.2056,0.2083 -0.6403,0.3021c-0.0334,0.0147 -0.3388,0.713 -0.9975,-0.0968c-1.4521,-1.7852 0.0527,-0.9562 0.3933,-1.1608c-0.529,-0.6894 0.8402,-0.5563 -1.0503,-0.5563c0.1021,0.4484 0.4278,1.9748 0.5529,2.2955c0.904,2.3167 -1.0856,-2.128 0.518,0.8343c0.1086,0.2006 0.202,-0.1457 0.2721,0.8853z" class="fil23" id="_386134624"/>
    <path stroke="null" d="m80.515688,82.200411l-2.109,0.3646c-0.0349,-0.1252 0.0149,-0.32 0.0215,-0.2707c0.0061,0.0453 0.0343,-0.1646 0.0421,-0.1915c0.0233,-0.0799 0.6103,-0.2379 -0.1378,-0.9551l-0.5929,-0.4027c1.2282,0.1734 1.4567,0.3143 2.4881,-0.0018l-1.1633,-0.2619c-0.2972,-0.0396 -1.0761,-0.1001 -1.1819,-0.1051l-2.1471,-0.023c0.609,1.2441 0.5379,-0.2155 0.6092,1.1572c0.1056,2.0323 0.3414,-0.1523 -0.7876,1.5606c1.7465,0.0385 0.2834,1.228 2.4372,0.8303c2.1389,-0.3949 0.1335,0.08 1.2485,-0.7407c1.185,-0.8723 -0.0746,0.4764 1.273,-0.9602z" class="fil13" id="_386134600"/>
    <path stroke="null" d="m85.008588,35.882411c0.4604,-0.6314 0.4671,0.2023 0.1718,-0.8296c-0.0735,-0.2568 -0.3341,-0.3473 -0.4319,-0.4125c1.0469,-1.3839 0.3908,-0.454 0.4907,-2.2281c1.0622,-0.846 1.5883,-0.8945 1.6349,-2.406c-2.3138,0.7032 -3.5426,2.5648 -3.2489,4.8485c0.165,1.2836 -0.0617,1.3749 1.3834,1.0277z" class="fil3" id="_386136304"/>
    <path stroke="null" d="m56.341388,59.195411l0.4395,0.0417c0.5654,-0.9287 0.3317,-0.2434 0.9118,-1.3012c0.0458,-0.0835 0.2607,-0.6562 0.3268,-0.7548c0.6887,-1.0268 -0.1712,-0.2918 0.975,-0.907c-0.4086,-0.5866 0.2807,-0.3546 -0.5617,-0.5804c-0.4056,0.5894 -0.1553,0.2376 -1.0033,0.4186l-0.6838,-0.9661l0.5684,1.2241c-1.6642,-0.6522 -0.8015,0.5203 -1.5773,-1.1682c-0.1287,1.0909 -0.049,0.319 -0.196,0.627l-0.3566,0.6301c-0.0357,0.0728 -0.091,0.1572 -0.1259,0.2349l-0.4709,1.4714c1.0999,0.5652 0.545,0.311 1.958,0.4635l-0.204,0.5664z" class="fil3" id="_386136088"/>
    <path stroke="null" d="m86.603588,28.079411l0.8464,2.3322c2.493,0.4272 2.6768,-0.534 3.157,-2.2324c-0.7503,-0.4822 -1.5083,-0.5358 -2.4703,-0.4193c-0.0358,0.0043 -0.1281,0.0067 -0.1675,0.0118l-1.3656,0.3077z" class="fil21" id="_386136160"/>
    <path stroke="null" d="m74.627888,94.059411c0.4406,-1.152 0.6069,-1.6064 1.3875,-2.3015c0.1106,-0.605 -0.0764,-1.2946 0.9129,-1.3145c0.1307,-0.0026 0.9432,0.3792 1.4277,0.531l1.0378,-2.381l-2.2577,0.0667l-2.785,3.8934c-0.1196,0.2424 -0.1969,0.461 -0.341,0.7763c-0.1014,0.222 -0.2019,0.4006 -0.3821,0.8369l0.9999,-0.1073z" class="fil24" id="_386137744"/>
    <path stroke="null" d="m93.069588,102.443411l1.5589,-0.1439c-0.1532,-1.4522 -0.9407,-1.912 -1.3086,-3.4024c-0.667,-2.7024 -1.0615,-1.4395 -1.5172,-2.6341c-0.7969,2.7808 1.3436,4.5953 1.2669,6.1804z" class="fil19" id="_386137528"/>
    <path stroke="null" d="m67.653088,51.830411l1.4337,0.0119c0.5836,-0.7606 2.1049,-3.2208 -0.2733,-2.1436c0.28,0.7405 -0.2888,0.225 0.6084,0.3528c-0.59,1.2583 -0.9331,1.1225 -1.868,0.4302c0.4505,-1.8417 0.9641,-0.2343 0.9065,-2.1333c-2.274,-0.1192 0.2,0.0108 -2.0558,0.7034l-0.7081,-1.4125c-0.0568,-0.0904 -0.141,-0.2119 -0.2218,-0.3099c-0.2141,2.4362 -0.5122,0.2284 2.1784,4.501z" class="fil14" id="_386137504"/>
    <path stroke="null" d="m95.330588,97.325411l2.0833,1.1141c0.1121,-3.128 -2.0169,-2.3328 -0.4303,-6.9998c-1.7945,0.6997 0.1269,-0.2799 -0.7762,0.4395c-0.1432,0.1141 -0.4842,0.4729 -0.5109,0.5084c-1.3406,1.7832 0.8307,3.4421 -0.3659,4.9378z" class="fil5" id="_386136928"/>
    <path stroke="null" d="m88.866588,91.471411c1.6696,-0.1025 0.4955,0.5817 3.194,-2.0331c0.6894,-0.6681 0.0132,0.1472 0.6187,-0.8078l-3.8031,0.0058l-0.0096,2.8351z" class="fil1" id="_386137288"/>
    <path stroke="null" d="m87.089588,91.227411l1.2164,-0.1247l-0.2066,-2.4409l-3.9572,-0.0254c1.1137,1.2085 1.8237,1.555 2.9474,2.591z" class="fil24" id="_386138416"/>
    <path stroke="null" d="m117.976588,56.723411l0.6346,1.7737c-0.7933,0.4659 -0.3219,0.1195 -1.032,0.3951l-0.5445,0.1975c-0.6497,0.3219 -0.3664,0.1968 -0.6893,0.4866c1.6133,0.5459 1.0425,-0.3349 3.329,0.5994c0.3399,-0.9171 0.5225,-0.8964 1.2479,-1.4347c-1.2841,-0.4511 -1.4759,-0.8218 -1.7665,-2.4212c-0.4816,0.2248 -0.6968,0.265 -1.1792,0.4036z" class="fil5" id="_386137120"/>
    <path stroke="null" d="m89.964588,14.365411l0.4566,1.2061l-0.8635,0.5756l1.1863,0.2291l0.6662,-0.0975c0.0499,-0.1748 0.1332,-0.4189 0.1607,-0.3467c0.0311,0.0815 0.2428,-0.3329 0.3221,-0.3998c0.8532,-0.72 -0.3139,-0.2064 0.3947,-0.1555l0.1679,2.5788c0.9679,-0.8073 0.3982,-1.9425 0.1121,-3.1818c-0.5223,-0.282 -0.3604,-0.1408 -0.6796,-0.3076l-0.8546,-0.4732c-0.0637,-0.0336 -0.1891,-0.0995 -0.2871,-0.1417l-0.7818,0.5142z" class="fil25" id="_386135776"/>
    <path stroke="null" d="m97.094588,88.313411l0.6878,0.588c0.3464,-0.1566 1.0258,-0.3291 2.3916,-0.1256c-0.4883,-0.7569 -0.7484,-0.9276 -1.4259,-1.5703c-0.941,-0.8926 -0.6976,-0.8089 -2.4431,-0.8386l0.7896,1.9465z" class="fil26" id="_386138104"/>
    <path stroke="null" d="m77.136088,88.659411l2.2577,-0.0667l1.3688,-2.0986l-1.7981,-0.1477c-0.7765,0.8783 -1.2382,0.9835 -1.8284,2.313z" class="fil2" id="_386136712"/>
    <path stroke="null" d="m100.664588,90.272411l-0.4903,-1.4973c-1.3658,-0.2035 -2.0452,-0.031 -2.3916,0.1256l0.9705,2.0957c0.6939,-0.287 1.0594,-0.5566 1.9114,-0.724z" class="fil27" id="_386135992"/>
    <path stroke="null" d="m74.627888,94.059411l2.865,0.239c-0.3568,-1.9365 0.1169,-0.3473 -0.7418,-1.347l-0.7357,-1.1935c-0.7806,0.6951 -0.9469,1.1495 -1.3875,2.3015z" class="fil5" id="_386138128"/>
    <path stroke="null" d="m79.348388,99.127411c0.6394,1.1005 0.312,0.9716 1.3412,1.5741c1.4978,-0.7343 1.5246,-0.6697 2.0301,-2.4524c-1.7166,0.8336 -1.1913,0.834 -3.3713,0.8783z" class="fil19" id="_384768376"/>
    <path stroke="null" d="m119.392588,61.340411c-0.4947,-0.3442 -1.0697,-0.53 -1.4824,-1.0329c-0.9102,0.4754 -0.4546,0.4286 -1.6526,0.6801l0.9471,1.8115c0.9402,-0.2303 0.4142,-0.0997 1.0912,-0.7339c0.6236,-0.5841 0.1686,-0.4426 1.0967,-0.7248z" class="fil5" id="_384765784"/>
    <path stroke="null" d="m102.431588,94.051411l-1.2737,-2.4991c-0.3207,1.0687 -0.0724,0.5422 -0.5989,1.4335c-0.3562,0.603 -0.5122,0.7313 -0.978,1.3486l2.8506,-0.283z" class="fil5" id="_384768592"/>
    <path stroke="null" d="m101.157588,91.552411l1.2737,2.4991l1.0639,0.0487l-1.5569,-2.9093c-0.6309,-0.2174 -0.0026,0.0956 -0.7129,-0.4602c-0.0621,-0.0486 -0.3303,-0.1615 -0.3675,-0.31c-0.0256,-0.1026 -0.1249,-0.1043 -0.1935,-0.1476l0.4932,1.2793z" class="fil1" id="_384765640"/>
    <path stroke="null" d="m89.366588,22.102411c-0.527,0.4645 -0.7594,0.8377 -1.3995,0.1992c-0.8116,0.7511 -0.536,-0.1521 -0.374,1.2909c1.0562,0.6103 0.8742,0.4895 1.8744,0.152c0.4005,-1.0703 0.4735,-0.4986 -0.1009,-1.6421z" class="fil28" id="_384765400"/>
    <polygon stroke="null" points="88.98558440804482,25.96540856361389 93.19258514046669,25.955414056777954 89.86957946419716,24.83441185951233 88.87057891488075,24.956413507461548 " class="fil29" id="_384765976"/>
    <path stroke="null" d="m78.890988,31.185411c0.6721,0.3263 0.8091,0.2999 1.2392,0.6137l0.0369,-1.8619c-0.5615,-1.1009 0.625,-0.3027 -0.6547,-0.3815l-0.4844,0.2256l-0.137,1.4041z" class="fil30" id="_384767896"/>
    <path stroke="null" d="m78.833488,34.381411c1.1509,-0.7523 0.5109,-0.145 0.9291,-0.9106c-0.615,-0.9555 -0.1666,-0.7315 -1.3302,-0.7073l-0.5238,1.3857l0.9249,0.2322z" class="fil17" id="_384765592"/>
    <path stroke="null" d="m86.158588,19.212411c-0.3406,0.2046 -1.8454,-0.6244 -0.3933,1.1608c0.6587,0.8098 0.9641,0.1115 0.9975,0.0968c-0.1303,-1.0508 -0.0415,-0.3338 0.5818,-1.6215c-0.7532,0.3549 -0.6036,0.3418 -1.186,0.3639z" class="fil31" id="_384766336"/>
    <path stroke="null" d="m86.438588,15.450411c0.6428,-0.523 0.502,-0.4472 1.2637,-0.6637c-0.1175,-0.1109 -0.1218,-1.3359 -2.068,-0.3663c0.3694,1.3136 -1.442,-1.0343 0.3663,0.7773c0.0378,0.0379 0.1692,0.1162 0.2053,0.1478c0.0365,0.0319 0.1572,0.0657 0.2327,0.1049z" class="fil32" id="_384768160"/>
    <path stroke="null" d="m90.743588,16.376411l-1.1863,-0.2291c-0.1481,0.7605 0.0574,0.919 0.3649,1.5098l0.8214,-1.2807z" class="fil33" id="_384766000"/>
    <path stroke="null" d="m80.458088,89.721411l1.0361,-1.0715l-0.8919,-0.0848l-0.6059,1.0198c0.2582,0.4562 -0.2763,0.1263 0.4617,0.1365z" class="fil34" id="_384765472"/>
    <polygon stroke="null" points="89.03657928109169,14.865410089492798 88.03158202767372,14.976410150527954 88.50058379769325,16.174408197402954 " class="fil31" id="_384766312"/>
   </g>
  </g>
 </g>
</svg>